<svg width="183" height="262" viewBox="0 0 183 262" fill="none" xmlns="http://www.w3.org/2000/svg">
<g filter="url(#filter0_d_14_925)">
<path d="M139 91.3368C139 117.775 117.734 139.208 91.5 139.208V68.6251L102.292 71.8653L92.5647 74.5067V81.8451L96.8233 84.1925V93.2149L102.638 96.42V87.3975L107.988 90.3464V99.3689L113.694 102.514V93.4917L117.871 95.7939V84.899L124.734 87.7809L119.099 89.9741V122.041C141.83 103.792 137.882 69.3354 122.495 55.0604C121.405 54.1137 120.272 53.216 119.099 52.3707C120.284 53.16 121.417 54.0607 122.495 55.0604C132.602 63.8392 139 76.835 139 91.3368Z" fill="white"/>
<path d="M63.819 122.041V83.2483L70.6824 86.1302L65.0474 88.3234V131.104C52.3533 122.51 44 107.907 44 91.3368C44 75.2711 51.8527 61.0537 63.9009 52.3707C48.1767 64.925 35.4828 98.6826 63.819 122.041Z" fill="white"/>
<path d="M124.504 112.136C139.409 89.9741 126.06 50.653 91.5 49.8276C56.94 50.654 43.5907 90.1123 58.4957 112.301C39.2502 86.601 55.6297 44.6214 91.5 44.2083C127.371 44.6209 143.75 86.4672 124.504 112.136Z" fill="white"/>
<path d="M73.2292 109.704V124.454L80.5999 120.432V105.691L73.2292 109.704Z" fill="white"/>
<path d="M75.2848 99.5551L69.8796 102.503V92.7341L75.2848 95.6903V99.5551Z" fill="white"/>
<path d="M80.5671 86.3655V96.402L85.9723 93.4592V89.3217L80.5671 86.3655Z" fill="white"/>
</g>
<g filter="url(#filter1_d_14_925)">
<path d="M36.0211 177.73C35.1549 176.493 34.3738 175.619 33.6777 175.109C32.9817 174.583 32.2315 174.212 31.4272 173.995C30.6228 173.763 29.7798 173.647 28.8982 173.647C27.5989 173.647 26.3924 173.941 25.2787 174.529C24.165 175.101 23.1983 175.89 22.3785 176.895C21.5742 177.885 20.94 179.045 20.476 180.375C20.0119 181.69 19.7799 183.09 19.7799 184.575C19.7799 186.075 20.0042 187.491 20.4528 188.821C20.9168 190.136 21.551 191.288 22.3553 192.278C23.1596 193.268 24.1186 194.057 25.2323 194.645C26.346 195.217 27.5679 195.503 28.8982 195.503C29.8262 195.503 30.6924 195.356 31.4968 195.062C32.3011 194.753 33.0281 194.351 33.6777 193.856C34.3428 193.361 34.9229 192.796 35.4178 192.162C35.9128 191.512 36.2995 190.839 36.5779 190.143L44.0489 192.232C43.5694 193.747 42.8656 195.155 41.9375 196.454C41.0095 197.738 39.888 198.852 38.5733 199.795C37.274 200.739 35.8045 201.481 34.165 202.023C32.5408 202.564 30.7852 202.835 28.8982 202.835C27.305 202.835 25.7814 202.618 24.3274 202.185C22.8735 201.752 21.5123 201.141 20.2439 200.352C18.9911 199.563 17.8464 198.612 16.8101 197.498C15.7892 196.385 14.9153 195.155 14.1883 193.809C13.4613 192.448 12.8967 190.994 12.4946 189.447C12.0924 187.885 11.8913 186.261 11.8913 184.575C11.8913 182.054 12.3322 179.695 13.2138 177.498C14.0955 175.287 15.302 173.361 16.8333 171.721C18.3646 170.066 20.1589 168.767 22.2161 167.823C24.2888 166.864 26.5161 166.385 28.8982 166.385C30.8007 166.385 32.4016 166.625 33.7009 167.104C35.0002 167.568 36.431 168.496 37.9932 169.888H43.1904V177.73H36.0211ZM76.8895 176.942C76.8121 176.4 76.6188 175.89 76.3094 175.41C76.0155 174.931 75.6288 174.521 75.1493 174.181C74.6853 173.825 74.1517 173.546 73.5484 173.345C72.9607 173.144 72.3419 173.044 71.6923 173.044C71.1045 173.044 70.5554 173.106 70.045 173.229C69.5345 173.353 69.086 173.546 68.6993 173.809C68.328 174.057 68.0264 174.382 67.7944 174.784C67.5779 175.186 67.4696 175.666 67.4696 176.222C67.4696 176.918 67.6165 177.475 67.9104 177.893C68.2198 178.295 68.6065 178.628 69.0705 178.891C69.55 179.154 70.0759 179.362 70.6482 179.517C71.2205 179.672 71.7774 179.842 72.3187 180.027L78.6992 182.162C79.5809 182.471 80.4084 182.897 81.1818 183.438C81.9552 183.979 82.6203 184.637 83.1771 185.41C83.7494 186.184 84.198 187.073 84.5228 188.078C84.8476 189.084 85.0101 190.213 85.0101 191.466C85.0101 193.167 84.693 194.722 84.0588 196.129C83.4401 197.537 82.5661 198.743 81.437 199.749C80.3079 200.754 78.9544 201.535 77.3767 202.092C75.799 202.649 74.0511 202.928 72.1331 202.928C70.7874 202.928 69.5113 202.773 68.3048 202.463C67.1138 202.17 66.0233 201.736 65.0334 201.164C64.0435 200.592 63.1773 199.911 62.4348 199.122C61.6924 198.318 61.1123 197.413 60.6947 196.408H58.3049V189.424H66.7039V190.863C66.7039 191.559 66.8122 192.201 67.0288 192.788C67.2608 193.376 67.6011 193.887 68.0496 194.32C68.4982 194.753 69.0628 195.093 69.7434 195.341C70.4239 195.573 71.2205 195.689 72.1331 195.689C73.5252 195.689 74.5848 195.371 75.3118 194.737C76.0387 194.088 76.4022 193.191 76.4022 192.046C76.4022 191.458 76.2708 190.971 76.0078 190.584C75.7603 190.182 75.4355 189.849 75.0333 189.587C74.6312 189.308 74.1826 189.076 73.6876 188.89C73.1927 188.705 72.7054 188.535 72.2259 188.38L66.9127 186.663C65.9073 186.354 64.9329 185.921 63.9893 185.364C63.0613 184.807 62.2337 184.111 61.5068 183.276C60.7952 182.44 60.2229 181.466 59.7898 180.352C59.3722 179.223 59.1634 177.939 59.1634 176.501C59.1634 174.83 59.4727 173.345 60.0914 172.046C60.7102 170.731 61.5764 169.625 62.69 168.728C63.8037 167.831 65.1262 167.151 66.6575 166.686C68.1888 166.222 69.8671 165.99 71.6923 165.99C73.1308 165.99 74.461 166.161 75.683 166.501C76.9049 166.826 77.9954 167.267 78.9544 167.823C79.9289 168.38 80.7487 169.022 81.4138 169.749C82.0944 170.461 82.6126 171.203 82.9683 171.976H85.2885V178.983H76.8895V176.942ZM99.8229 167.034H127.804V179.03H120.24V174.041H111.215V180.979H118.199V187.707H111.215V195.851H120.24V189.61H127.804V202.208H99.8229V195.851H103.512V174.041H99.8229V167.034ZM142.779 167.034H159.021C160.83 167.034 162.493 167.321 164.009 167.893C165.525 168.45 166.832 169.208 167.93 170.167C169.028 171.126 169.887 172.232 170.505 173.485C171.124 174.737 171.434 176.044 171.434 177.406C171.434 179.045 171.186 180.584 170.691 182.023C170.212 183.446 169.461 184.683 168.441 185.735C167.42 186.787 166.128 187.622 164.566 188.241C163.004 188.844 161.155 189.146 159.021 189.146H154.125V195.851H157.35V202.208H142.779V195.851H146.422V173.415H142.779V167.034ZM154.125 173.415V182.858H157.304C159.067 182.858 160.467 182.487 161.503 181.744C162.54 181.002 163.058 179.826 163.058 178.218C163.058 176.717 162.571 175.542 161.596 174.691C160.622 173.84 159.191 173.415 157.304 173.415H154.125Z" fill="white"/>
</g>
<g filter="url(#filter2_d_14_925)">
<path d="M33.3704 224.476C33.1176 224.046 32.7819 223.709 32.3631 223.463C31.9481 223.218 31.4841 223.096 30.971 223.096C30.5334 223.096 30.1335 223.188 29.7713 223.373C29.4091 223.558 29.0979 223.807 28.8376 224.12C28.5811 224.429 28.3811 224.789 28.2377 225.201C28.0944 225.608 28.0227 226.038 28.0227 226.491C28.0227 227.027 28.1019 227.502 28.2604 227.917C28.4188 228.328 28.6244 228.671 28.8772 228.947C29.1337 229.218 29.4374 229.447 29.7883 229.632C30.1392 229.813 30.5334 229.903 30.971 229.903C31.5671 229.903 32.0858 229.76 32.5272 229.473C32.9686 229.183 33.3459 228.707 33.659 228.047L34.655 228.517C34.5116 228.924 34.2683 229.318 33.925 229.7C33.5817 230.077 33.1573 230.382 32.6517 230.616C32.15 230.846 31.5935 230.961 30.9823 230.961C30.3976 230.961 29.86 230.852 29.3695 230.633C28.8791 230.411 28.4415 230.096 28.0567 229.688C27.6756 229.281 27.3832 228.798 27.1795 228.24C26.9796 227.681 26.8796 227.098 26.8796 226.491C26.8796 225.88 26.9796 225.303 27.1795 224.759C27.3832 224.216 27.6662 223.744 28.0284 223.345C28.3943 222.941 28.8282 222.624 29.3299 222.394C29.8355 222.16 30.3825 222.043 30.971 222.043C31.4954 222.043 31.9481 222.118 32.3292 222.269C32.7102 222.416 33.0328 222.594 33.2968 222.801C33.5647 223.005 33.7948 223.228 33.9872 223.469H34.5871V224.476H33.3704ZM36.0582 222.213H42.2038V224.64H41.0437V223.192H37.9822V225.936H40.557V226.91H37.9822V229.818H41.0437V228.37H42.2038V230.792H36.0582V229.818H36.8731V223.192H36.0582V222.213ZM43.5674 222.213H47.1382C47.5192 222.213 47.8701 222.264 48.1907 222.366C48.5152 222.464 48.7944 222.611 49.0283 222.807C49.2659 222.999 49.4508 223.241 49.5828 223.531C49.7149 223.822 49.7809 224.156 49.7809 224.533C49.7809 224.748 49.7413 224.961 49.6621 225.172C49.5866 225.38 49.4791 225.574 49.3395 225.755C49.2037 225.933 49.0415 226.091 48.8528 226.231C48.6642 226.37 48.4586 226.478 48.236 226.553C48.3303 226.595 48.4246 226.655 48.519 226.734C48.6171 226.81 48.7076 226.904 48.7906 227.017C48.8774 227.127 48.9547 227.253 49.0226 227.396C49.0943 227.536 49.1509 227.687 49.1924 227.849L49.6677 229.716H50.4091L50.4204 230.792H48.751L48.1115 228.183C47.9946 227.715 47.8154 227.372 47.5739 227.153C47.3362 226.93 47.0099 226.819 46.5949 226.819H45.4914V229.818H46.3516V230.792H43.5674V229.818H44.3823V223.192H43.5674V222.213ZM45.4914 223.192V225.891H47.1382C47.3532 225.891 47.5494 225.863 47.7267 225.806C47.9078 225.75 48.0625 225.665 48.1907 225.552C48.3228 225.438 48.4246 225.299 48.4963 225.133C48.5718 224.963 48.6095 224.767 48.6095 224.544C48.6095 224.118 48.4812 223.786 48.2247 223.548C47.9682 223.311 47.5607 223.192 47.0024 223.192H45.4914ZM53.8042 229.818H54.5908V223.141H52.6328V224.476H51.4727V222.213H59.1236V224.476H57.9635V223.141H55.6999V229.818H56.5827V230.792H53.8042V229.818ZM60.3966 222.213H63.1356V223.192H62.3207V229.818H63.1356V230.792H60.3966V229.818H61.2115V223.192H60.3966V222.213ZM64.9858 222.213H71.1314V224.64H69.9714V223.192H66.9099V225.948H69.8582V226.898H66.9099V229.818H67.77V230.792H64.9858V229.818H65.8007V223.192H64.9858V222.213ZM72.2573 222.213H74.9963V223.192H74.1814V229.818H74.9963V230.792H72.2573V229.818H73.0722V223.192H72.2573V222.213ZM76.8465 222.213H82.9921V224.64H81.8321V223.192H78.7706V225.936H81.3454V226.91H78.7706V229.818H81.8321V228.37H82.9921V230.792H76.8465V229.818H77.6614V223.192H76.8465V222.213ZM84.3557 222.213H87.5474C87.9397 222.213 88.3132 222.264 88.6678 222.366C89.0225 222.467 89.3526 222.611 89.6582 222.796C89.9637 222.98 90.241 223.203 90.49 223.463C90.739 223.72 90.9503 224.007 91.1238 224.324C91.3011 224.64 91.437 224.982 91.5313 225.348C91.6256 225.71 91.6728 226.087 91.6728 226.48C91.6728 226.879 91.6256 227.262 91.5313 227.628C91.437 227.994 91.3011 228.338 91.1238 228.658C90.9503 228.979 90.739 229.271 90.49 229.535C90.241 229.796 89.9637 230.02 89.6582 230.209C89.3526 230.394 89.0225 230.537 88.6678 230.639C88.3132 230.741 87.9397 230.792 87.5474 230.792H84.3557V229.818H85.1706V223.192H84.3557V222.213ZM86.2798 223.192V229.818H87.6153C88.0114 229.818 88.383 229.732 88.7301 229.558C89.081 229.384 89.3865 229.149 89.6468 228.851C89.9072 228.549 90.1128 228.196 90.2637 227.792C90.4146 227.385 90.49 226.947 90.49 226.48C90.49 226.019 90.4146 225.589 90.2637 225.189C90.1128 224.789 89.9072 224.442 89.6468 224.148C89.3865 223.85 89.081 223.616 88.7301 223.446C88.383 223.277 88.0114 223.192 87.6153 223.192H86.2798ZM100.285 224.544C100.285 224.212 100.225 223.963 100.104 223.797C99.9834 223.631 99.8495 223.505 99.7023 223.418C99.559 223.328 99.4005 223.26 99.227 223.214C99.0535 223.165 98.8799 223.141 98.7064 223.141C98.4197 223.141 98.1688 223.175 97.9537 223.243C97.7387 223.307 97.5595 223.395 97.4161 223.509C97.2765 223.622 97.1709 223.754 97.0992 223.905C97.0276 224.056 96.9917 224.214 96.9917 224.38C96.9917 224.629 97.0351 224.831 97.1219 224.986C97.2124 225.137 97.3256 225.259 97.4614 225.353C97.5972 225.444 97.7462 225.516 97.9085 225.568C98.0745 225.621 98.2329 225.674 98.3838 225.727L99.5269 226.1C99.8702 226.21 100.172 226.334 100.432 226.474C100.696 226.613 100.917 226.779 101.094 226.972C101.272 227.161 101.406 227.379 101.496 227.628C101.591 227.877 101.638 228.166 101.638 228.494C101.638 228.849 101.564 229.177 101.417 229.479C101.274 229.781 101.072 230.043 100.812 230.265C100.551 230.488 100.24 230.663 99.8778 230.792C99.5194 230.916 99.1251 230.978 98.6951 230.978C98.2537 230.978 97.8764 230.928 97.5633 230.826C97.2501 230.728 96.9861 230.596 96.771 230.43C96.5597 230.26 96.39 230.067 96.2617 229.852C96.1334 229.637 96.0335 229.417 95.9618 229.19H95.5317V228.217H96.9578C96.9578 228.636 97.0011 228.932 97.0879 229.105C97.1785 229.279 97.303 229.424 97.4614 229.541C97.6199 229.654 97.8085 229.741 98.0273 229.801C98.2461 229.858 98.4876 229.886 98.7516 229.886C99.0082 229.886 99.2383 229.856 99.442 229.796C99.6495 229.735 99.825 229.649 99.9683 229.535C100.115 229.418 100.227 229.279 100.302 229.117C100.381 228.951 100.421 228.764 100.421 228.556C100.421 228.326 100.372 228.132 100.274 227.974C100.18 227.811 100.057 227.674 99.9061 227.56C99.7552 227.447 99.5892 227.355 99.4081 227.283C99.2308 227.211 99.0591 227.149 98.8931 227.096L97.6538 226.746C97.3822 226.663 97.1332 226.557 96.9068 226.429C96.6842 226.3 96.4918 226.144 96.3296 225.959C96.1712 225.774 96.0486 225.559 95.9618 225.314C95.875 225.065 95.8316 224.778 95.8316 224.454C95.8316 224.125 95.8958 223.818 96.024 223.531C96.1523 223.245 96.3409 222.994 96.5899 222.779C96.8389 222.564 97.1426 222.396 97.501 222.275C97.8632 222.15 98.2763 222.088 98.7403 222.088C99.0459 222.088 99.327 222.124 99.5835 222.196C99.8438 222.267 100.078 222.369 100.285 222.501C100.496 222.63 100.681 222.786 100.84 222.971C101.002 223.152 101.138 223.352 101.247 223.571H101.672V224.544H100.285ZM102.967 222.213H109.113V224.64H107.953V223.192H104.891V225.936H107.466V226.91H104.891V229.818H107.953V228.37H109.113V230.792H102.967V229.818H103.782V223.192H102.967V222.213ZM116.566 224.476C116.313 224.046 115.977 223.709 115.558 223.463C115.143 223.218 114.679 223.096 114.166 223.096C113.729 223.096 113.329 223.188 112.966 223.373C112.604 223.558 112.293 223.807 112.033 224.12C111.776 224.429 111.576 224.789 111.433 225.201C111.29 225.608 111.218 226.038 111.218 226.491C111.218 227.027 111.297 227.502 111.456 227.917C111.614 228.328 111.82 228.671 112.072 228.947C112.329 229.218 112.633 229.447 112.983 229.632C113.334 229.813 113.729 229.903 114.166 229.903C114.762 229.903 115.281 229.76 115.722 229.473C116.164 229.183 116.541 228.707 116.854 228.047L117.85 228.517C117.707 228.924 117.463 229.318 117.12 229.7C116.777 230.077 116.352 230.382 115.847 230.616C115.345 230.846 114.789 230.961 114.177 230.961C113.593 230.961 113.055 230.852 112.565 230.633C112.074 230.411 111.637 230.096 111.252 229.688C110.871 229.281 110.578 228.798 110.375 228.24C110.175 227.681 110.075 227.098 110.075 226.491C110.075 225.88 110.175 225.303 110.375 224.759C110.578 224.216 110.861 223.744 111.224 223.345C111.589 222.941 112.023 222.624 112.525 222.394C113.031 222.16 113.578 222.043 114.166 222.043C114.691 222.043 115.143 222.118 115.524 222.269C115.905 222.416 116.228 222.594 116.492 222.801C116.76 223.005 116.99 223.228 117.182 223.469H117.782V224.476H116.566ZM119.084 222.213H121.862V223.192H120.985V227.187C120.985 227.666 121.038 228.075 121.143 228.415C121.253 228.751 121.402 229.026 121.59 229.241C121.783 229.452 122.009 229.607 122.27 229.705C122.534 229.803 122.822 229.852 123.135 229.852C123.46 229.852 123.758 229.809 124.029 229.722C124.301 229.635 124.533 229.49 124.726 229.286C124.922 229.079 125.073 228.805 125.178 228.466C125.288 228.123 125.342 227.696 125.342 227.187V223.192H124.414V222.213H127.193V223.192H126.429V227.062C126.429 227.681 126.342 228.23 126.169 228.709C125.999 229.188 125.765 229.59 125.467 229.915C125.169 230.239 124.818 230.486 124.414 230.656C124.011 230.822 123.577 230.905 123.113 230.905C122.66 230.905 122.236 230.822 121.839 230.656C121.447 230.49 121.104 230.247 120.81 229.926C120.519 229.605 120.289 229.215 120.119 228.754C119.953 228.29 119.87 227.76 119.87 227.164V223.192H119.084V222.213ZM128.256 222.213H131.827C132.208 222.213 132.559 222.264 132.88 222.366C133.204 222.464 133.483 222.611 133.717 222.807C133.955 222.999 134.14 223.241 134.272 223.531C134.404 223.822 134.47 224.156 134.47 224.533C134.47 224.748 134.43 224.961 134.351 225.172C134.276 225.38 134.168 225.574 134.029 225.755C133.893 225.933 133.731 226.091 133.542 226.231C133.353 226.37 133.148 226.478 132.925 226.553C133.019 226.595 133.114 226.655 133.208 226.734C133.306 226.81 133.397 226.904 133.48 227.017C133.566 227.127 133.644 227.253 133.712 227.396C133.783 227.536 133.84 227.687 133.881 227.849L134.357 229.716H135.098L135.109 230.792H133.44L132.801 228.183C132.684 227.715 132.504 227.372 132.263 227.153C132.025 226.93 131.699 226.819 131.284 226.819H130.181V229.818H131.041V230.792H128.256V229.818H129.071V223.192H128.256V222.213ZM130.181 223.192V225.891H131.827C132.042 225.891 132.239 225.863 132.416 225.806C132.597 225.75 132.752 225.665 132.88 225.552C133.012 225.438 133.114 225.299 133.185 225.133C133.261 224.963 133.299 224.767 133.299 224.544C133.299 224.118 133.17 223.786 132.914 223.548C132.657 223.311 132.25 223.192 131.691 223.192H130.181ZM136.739 222.213H139.478V223.192H138.663V229.818H139.478V230.792H136.739V229.818H137.554V223.192H136.739V222.213ZM143.082 229.818H143.869V223.141H141.911V224.476H140.751V222.213H148.402V224.476H147.242V223.141H144.978V229.818H145.861V230.792H143.082V229.818ZM149.154 222.213H151.939V223.192H151.124L152.736 225.948L154.462 223.192H153.568V222.213H156.352V223.192H155.622L153.212 226.847V229.818H154.095V230.792H151.31V229.818H152.097V226.819L149.822 223.192H149.154V222.213ZM10.5879 241.213H16.7335V243.64H15.5735V242.192H12.512V244.936H15.0868V245.91H12.512V248.818H15.5735V247.37H16.7335V249.792H10.5879V248.818H11.4028V242.192H10.5879V241.213ZM23.4052 241.213H26.1894V242.192H25.4594V249.792H24.0107L20.0212 242.678V248.818H20.904V249.792H18.1198V248.818H18.912V242.192H18.0971V241.201H20.406L24.322 248.247L24.3672 247.975V242.192H23.4052V241.213ZM34.14 249.826V248.105C33.9967 248.403 33.8175 248.664 33.6024 248.886C33.3874 249.105 33.1478 249.286 32.8837 249.43C32.6197 249.573 32.3367 249.68 32.0349 249.752C31.7369 249.824 31.4332 249.86 31.1238 249.86C30.5655 249.86 30.0505 249.767 29.5789 249.582C29.1073 249.394 28.6791 249.096 28.2943 248.688C27.9133 248.281 27.6209 247.798 27.4172 247.24C27.2172 246.681 27.1173 246.098 27.1173 245.491C27.1173 244.88 27.2172 244.303 27.4172 243.759C27.6209 243.216 27.9039 242.743 28.266 242.339C28.632 241.935 29.0658 241.618 29.5676 241.388C30.0731 241.158 30.6202 241.043 31.2087 241.043C31.7519 241.043 32.2179 241.12 32.6064 241.275C32.9988 241.43 33.3327 241.618 33.6081 241.841C33.8873 242.06 34.1098 242.269 34.2758 242.469H34.8248V243.476H33.6081C33.3553 243.046 33.0196 242.707 32.6008 242.458C32.1858 242.209 31.7199 242.088 31.203 242.096C30.7692 242.096 30.3712 242.188 30.009 242.373C29.6468 242.558 29.3356 242.807 29.0753 243.12C28.8187 243.433 28.6188 243.793 28.4754 244.201C28.3321 244.608 28.2604 245.038 28.2604 245.491C28.2604 245.993 28.3396 246.459 28.4981 246.889C28.6565 247.319 28.8583 247.668 29.1036 247.936C29.3488 248.203 29.6506 248.426 30.009 248.603C30.3712 248.777 30.7711 248.864 31.2087 248.864C31.933 248.864 32.5272 248.688 32.9913 248.337C33.4553 247.983 33.7797 247.432 33.9646 246.685H31.5652V245.712H35.1926V249.826H34.14ZM37.2805 241.213H40.0194V242.192H39.2046V248.818H40.0194V249.792H37.2805V248.818H38.0954V242.192H37.2805V241.213ZM47.1778 241.213H49.962V242.192H49.232V249.792H47.7833L43.7937 242.678V248.818H44.6765V249.792H41.8923V248.818H42.6846V242.192H41.8697V241.201H44.1785L48.0945 248.247L48.1398 247.975V242.192H47.1778V241.213ZM51.2916 241.213H57.4372V243.64H56.2772V242.192H53.2157V244.936H55.7905V245.91H53.2157V248.818H56.2772V247.37H57.4372V249.792H51.2916V248.818H52.1065V242.192H51.2916V241.213ZM58.8008 241.213H64.9464V243.64H63.7864V242.192H60.7249V244.936H63.2997V245.91H60.7249V248.818H63.7864V247.37H64.9464V249.792H58.8008V248.818H59.6157V242.192H58.8008V241.213ZM66.31 241.213H69.8808C70.2618 241.213 70.6127 241.264 70.9334 241.366C71.2578 241.464 71.537 241.611 71.7709 241.807C72.0086 241.999 72.1934 242.241 72.3255 242.531C72.4575 242.822 72.5235 243.156 72.5235 243.533C72.5235 243.748 72.4839 243.961 72.4047 244.172C72.3293 244.38 72.2217 244.574 72.0821 244.755C71.9463 244.933 71.7841 245.091 71.5955 245.231C71.4068 245.37 71.2012 245.478 70.9786 245.553C71.073 245.595 71.1673 245.655 71.2616 245.734C71.3597 245.81 71.4502 245.904 71.5332 246.017C71.62 246.127 71.6973 246.253 71.7652 246.396C71.8369 246.536 71.8935 246.687 71.935 246.849L72.4104 248.716H73.1517L73.163 249.792H71.4936L70.8542 247.183C70.7372 246.715 70.558 246.372 70.3166 246.153C70.0789 245.93 69.7525 245.819 69.3376 245.819H68.2341V248.818H69.0942V249.792H66.31V248.818H67.1249V242.192H66.31V241.213ZM68.2341 242.192V244.891H69.8808C70.0959 244.891 70.292 244.863 70.4693 244.806C70.6504 244.75 70.8051 244.665 70.9334 244.552C71.0654 244.438 71.1673 244.299 71.239 244.133C71.3144 243.963 71.3521 243.767 71.3521 243.544C71.3521 243.118 71.2239 242.786 70.9673 242.548C70.7108 242.311 70.3033 242.192 69.745 242.192H68.2341ZM80.3266 241.213H83.7955C84.1803 241.213 84.533 241.264 84.8537 241.366C85.1782 241.464 85.4573 241.611 85.6912 241.807C85.9289 241.999 86.1119 242.241 86.2402 242.531C86.3722 242.822 86.4382 243.156 86.4382 243.533C86.4382 243.846 86.3741 244.142 86.2458 244.421C86.1175 244.697 85.9365 244.938 85.7026 245.146C85.4687 245.353 85.1876 245.517 84.8594 245.638C84.5349 245.759 84.1728 245.819 83.7729 245.819H82.2506V248.818H83.1108V249.792H80.3266V248.818H81.1414V242.192H80.3266V241.213ZM82.2506 242.192V244.891H83.7955C84.0105 244.891 84.2067 244.863 84.384 244.806C84.5651 244.746 84.7198 244.659 84.8481 244.546C84.9801 244.433 85.082 244.291 85.1536 244.121C85.2291 243.952 85.2668 243.755 85.2668 243.533C85.2668 243.11 85.1385 242.782 84.882 242.548C84.6255 242.311 84.2161 242.192 83.654 242.192H82.2506ZM87.7565 241.213H91.3273C91.7084 241.213 92.0592 241.264 92.3799 241.366C92.7043 241.464 92.9835 241.611 93.2174 241.807C93.4551 241.999 93.6399 242.241 93.772 242.531C93.904 242.822 93.9701 243.156 93.9701 243.533C93.9701 243.748 93.9304 243.961 93.8512 244.172C93.7758 244.38 93.6682 244.574 93.5287 244.755C93.3928 244.933 93.2306 245.091 93.042 245.231C92.8534 245.37 92.6477 245.478 92.4252 245.553C92.5195 245.595 92.6138 245.655 92.7081 245.734C92.8062 245.81 92.8967 245.904 92.9797 246.017C93.0665 246.127 93.1438 246.253 93.2118 246.396C93.2834 246.536 93.34 246.687 93.3815 246.849L93.8569 248.716H94.5982L94.6095 249.792H92.9401L92.3007 247.183C92.1837 246.715 92.0045 246.372 91.7631 246.153C91.5254 245.93 91.1991 245.819 90.7841 245.819H89.6806V248.818H90.5407V249.792H87.7565V248.818H88.5714V242.192H87.7565V241.213ZM89.6806 242.192V244.891H91.3273C91.5424 244.891 91.7385 244.863 91.9159 244.806C92.0969 244.75 92.2516 244.665 92.3799 244.552C92.5119 244.438 92.6138 244.299 92.6855 244.133C92.7609 243.963 92.7986 243.767 92.7986 243.544C92.7986 243.118 92.6704 242.786 92.4138 242.548C92.1573 242.311 91.7499 242.192 91.1915 242.192H89.6806ZM99.9513 249.961C99.359 249.961 98.8177 249.852 98.3272 249.633C97.8368 249.411 97.3991 249.096 97.0143 248.688C96.6295 248.281 96.3372 247.798 96.1372 247.24C95.9373 246.681 95.8373 246.102 95.8373 245.502C95.8373 244.883 95.9373 244.303 96.1372 243.759C96.3409 243.216 96.6239 242.744 96.986 242.345C97.352 241.941 97.7858 241.624 98.2876 241.394C98.7931 241.16 99.3477 241.043 99.9513 241.043C100.559 241.043 101.115 241.16 101.621 241.394C102.126 241.624 102.56 241.941 102.922 242.345C103.284 242.744 103.566 243.216 103.765 243.759C103.965 244.303 104.065 244.883 104.065 245.502C104.065 246.121 103.964 246.702 103.76 247.245C103.56 247.785 103.277 248.256 102.911 248.66C102.549 249.064 102.115 249.382 101.609 249.616C101.108 249.846 100.555 249.961 99.9513 249.961ZM99.9513 248.909C100.4 248.909 100.806 248.816 101.168 248.632C101.534 248.447 101.845 248.2 102.102 247.89C102.358 247.577 102.556 247.215 102.696 246.804C102.836 246.393 102.905 245.959 102.905 245.502C102.905 245.034 102.828 244.584 102.673 244.15C102.522 243.712 102.309 243.342 102.034 243.041C101.762 242.739 101.445 242.507 101.083 242.345C100.721 242.179 100.344 242.096 99.9513 242.096C99.5024 242.096 99.0949 242.188 98.729 242.373C98.3631 242.558 98.0518 242.807 97.7953 243.12C97.5387 243.429 97.3407 243.791 97.2011 244.206C97.0615 244.618 96.9917 245.049 96.9917 245.502C96.9917 246.03 97.069 246.502 97.2237 246.917C97.3784 247.328 97.5821 247.671 97.8349 247.947C98.0914 248.218 98.3951 248.447 98.746 248.632C99.1006 248.816 99.5024 248.909 99.9513 248.909ZM105.514 241.213H111.659V243.64H110.499V242.192H107.438V244.948H110.386V245.898H107.438V248.818H108.298V249.792H105.514V248.818H106.329V242.192H105.514V241.213ZM112.785 241.213H118.931V243.64H117.771V242.192H114.709V244.936H117.284V245.91H114.709V248.818H117.771V247.37H118.931V249.792H112.785V248.818H113.6V242.192H112.785V241.213ZM124.692 243.544C124.692 243.212 124.631 242.963 124.51 242.797C124.39 242.631 124.256 242.505 124.109 242.418C123.965 242.328 123.807 242.26 123.633 242.214C123.46 242.165 123.286 242.141 123.113 242.141C122.826 242.141 122.575 242.175 122.36 242.243C122.145 242.307 121.966 242.395 121.822 242.509C121.683 242.622 121.577 242.754 121.506 242.905C121.434 243.056 121.398 243.214 121.398 243.38C121.398 243.629 121.441 243.831 121.528 243.986C121.619 244.137 121.732 244.259 121.868 244.353C122.004 244.444 122.153 244.516 122.315 244.568C122.481 244.621 122.639 244.674 122.79 244.727L123.933 245.1C124.277 245.21 124.578 245.334 124.839 245.474C125.103 245.613 125.324 245.779 125.501 245.972C125.678 246.161 125.812 246.379 125.903 246.628C125.997 246.877 126.044 247.166 126.044 247.494C126.044 247.849 125.971 248.177 125.823 248.479C125.68 248.781 125.478 249.043 125.218 249.265C124.958 249.488 124.646 249.663 124.284 249.792C123.926 249.916 123.531 249.978 123.101 249.978C122.66 249.978 122.283 249.928 121.97 249.826C121.657 249.728 121.392 249.596 121.177 249.43C120.966 249.26 120.796 249.067 120.668 248.852C120.54 248.637 120.44 248.417 120.368 248.19H119.938V247.217H121.364C121.364 247.636 121.408 247.932 121.494 248.105C121.585 248.279 121.709 248.424 121.868 248.541C122.026 248.654 122.215 248.741 122.434 248.801C122.652 248.858 122.894 248.886 123.158 248.886C123.415 248.886 123.645 248.856 123.848 248.796C124.056 248.735 124.231 248.649 124.375 248.535C124.522 248.418 124.633 248.279 124.709 248.117C124.788 247.951 124.827 247.764 124.827 247.556C124.827 247.326 124.778 247.132 124.68 246.974C124.586 246.811 124.463 246.674 124.312 246.56C124.162 246.447 123.996 246.355 123.814 246.283C123.637 246.211 123.465 246.149 123.299 246.096L122.06 245.746C121.789 245.663 121.54 245.557 121.313 245.429C121.091 245.3 120.898 245.144 120.736 244.959C120.578 244.774 120.455 244.559 120.368 244.314C120.281 244.065 120.238 243.778 120.238 243.454C120.238 243.125 120.302 242.818 120.43 242.531C120.559 242.245 120.747 241.994 120.996 241.779C121.245 241.564 121.549 241.396 121.907 241.275C122.27 241.15 122.683 241.088 123.147 241.088C123.452 241.088 123.733 241.124 123.99 241.196C124.25 241.267 124.484 241.369 124.692 241.501C124.903 241.63 125.088 241.786 125.246 241.971C125.408 242.152 125.544 242.352 125.654 242.571H126.078V243.544H124.692ZM131.771 243.544C131.771 243.212 131.71 242.963 131.59 242.797C131.469 242.631 131.335 242.505 131.188 242.418C131.044 242.328 130.886 242.26 130.712 242.214C130.539 242.165 130.365 242.141 130.192 242.141C129.905 242.141 129.654 242.175 129.439 242.243C129.224 242.307 129.045 242.395 128.902 242.509C128.762 242.622 128.656 242.754 128.585 242.905C128.513 243.056 128.477 243.214 128.477 243.38C128.477 243.629 128.521 243.831 128.607 243.986C128.698 244.137 128.811 244.259 128.947 244.353C129.083 244.444 129.232 244.516 129.394 244.568C129.56 244.621 129.718 244.674 129.869 244.727L131.012 245.1C131.356 245.21 131.658 245.334 131.918 245.474C132.182 245.613 132.403 245.779 132.58 245.972C132.757 246.161 132.891 246.379 132.982 246.628C133.076 246.877 133.123 247.166 133.123 247.494C133.123 247.849 133.05 248.177 132.902 248.479C132.759 248.781 132.557 249.043 132.297 249.265C132.037 249.488 131.725 249.663 131.363 249.792C131.005 249.916 130.611 249.978 130.181 249.978C129.739 249.978 129.362 249.928 129.049 249.826C128.736 249.728 128.472 249.596 128.256 249.43C128.045 249.26 127.875 249.067 127.747 248.852C127.619 248.637 127.519 248.417 127.447 248.19H127.017V247.217H128.443C128.443 247.636 128.487 247.932 128.573 248.105C128.664 248.279 128.788 248.424 128.947 248.541C129.105 248.654 129.294 248.741 129.513 248.801C129.732 248.858 129.973 248.886 130.237 248.886C130.494 248.886 130.724 248.856 130.928 248.796C131.135 248.735 131.31 248.649 131.454 248.535C131.601 248.418 131.712 248.279 131.788 248.117C131.867 247.951 131.907 247.764 131.907 247.556C131.907 247.326 131.857 247.132 131.759 246.974C131.665 246.811 131.542 246.674 131.392 246.56C131.241 246.447 131.075 246.355 130.894 246.283C130.716 246.211 130.545 246.149 130.379 246.096L129.139 245.746C128.868 245.663 128.619 245.557 128.392 245.429C128.17 245.3 127.977 245.144 127.815 244.959C127.657 244.774 127.534 244.559 127.447 244.314C127.36 244.065 127.317 243.778 127.317 243.454C127.317 243.125 127.381 242.818 127.51 242.531C127.638 242.245 127.826 241.994 128.075 241.779C128.324 241.564 128.628 241.396 128.986 241.275C129.349 241.15 129.762 241.088 130.226 241.088C130.531 241.088 130.812 241.124 131.069 241.196C131.329 241.267 131.563 241.369 131.771 241.501C131.982 241.63 132.167 241.786 132.325 241.971C132.488 242.152 132.623 242.352 132.733 242.571H133.157V243.544H131.771ZM134.453 241.213H137.192V242.192H136.377V248.818H137.192V249.792H134.453V248.818H135.268V242.192H134.453V241.213ZM142.754 249.961C142.162 249.961 141.621 249.852 141.13 249.633C140.64 249.411 140.202 249.096 139.817 248.688C139.432 248.281 139.14 247.798 138.94 247.24C138.74 246.681 138.64 246.102 138.64 245.502C138.64 244.883 138.74 244.303 138.94 243.759C139.144 243.216 139.427 242.744 139.789 242.345C140.155 241.941 140.589 241.624 141.091 241.394C141.596 241.16 142.151 241.043 142.754 241.043C143.362 241.043 143.918 241.16 144.424 241.394C144.929 241.624 145.363 241.941 145.725 242.345C146.087 242.744 146.368 243.216 146.568 243.759C146.768 244.303 146.868 244.883 146.868 245.502C146.868 246.121 146.766 246.702 146.563 247.245C146.363 247.785 146.08 248.256 145.714 248.66C145.352 249.064 144.918 249.382 144.412 249.616C143.911 249.846 143.358 249.961 142.754 249.961ZM142.754 248.909C143.203 248.909 143.609 248.816 143.971 248.632C144.337 248.447 144.648 248.2 144.905 247.89C145.161 247.577 145.359 247.215 145.499 246.804C145.638 246.393 145.708 245.959 145.708 245.502C145.708 245.034 145.631 244.584 145.476 244.15C145.325 243.712 145.112 243.342 144.837 243.041C144.565 242.739 144.248 242.507 143.886 242.345C143.524 242.179 143.147 242.096 142.754 242.096C142.305 242.096 141.898 242.188 141.532 242.373C141.166 242.558 140.855 242.807 140.598 243.12C140.342 243.429 140.144 243.791 140.004 244.206C139.864 244.618 139.795 245.049 139.795 245.502C139.795 246.03 139.872 246.502 140.027 246.917C140.181 247.328 140.385 247.671 140.638 247.947C140.894 248.218 141.198 248.447 141.549 248.632C141.904 248.816 142.305 248.909 142.754 248.909ZM153.625 241.213H156.409V242.192H155.679V249.792H154.23L150.241 242.678V248.818H151.124V249.792H148.339V248.818H149.132V242.192H148.317V241.201H150.626L154.542 248.247L154.587 247.975V242.192H153.625V241.213ZM162.815 248.818H163.528L162.849 246.872H159.55L158.887 248.818H159.77V249.792H156.986V248.818H157.733L160.404 241.213H162.073L164.739 248.818H165.599V249.792H162.815V248.818ZM159.872 245.932H162.521L161.185 242.096L159.872 245.932ZM166.697 241.213H169.481V242.192H168.621V248.818H171.58C171.641 248.818 171.701 248.805 171.761 248.779C171.822 248.749 171.876 248.711 171.925 248.666C171.975 248.62 172.014 248.569 172.044 248.513C172.074 248.452 172.09 248.392 172.09 248.332V247.251H173.165V249.792H166.697V248.818H167.511V242.192H166.697V241.213Z" fill="white"/>
</g>
<defs>
<filter id="filter0_d_14_925" x="0.350002" y="0.558254" width="182.3" height="182.3" filterUnits="userSpaceOnUse" color-interpolation-filters="sRGB">
<feFlood flood-opacity="0" result="BackgroundImageFix"/>
<feColorMatrix in="SourceAlpha" type="matrix" values="0 0 0 0 0 0 0 0 0 0 0 0 0 0 0 0 0 0 127 0" result="hardAlpha"/>
<feOffset/>
<feGaussianBlur stdDeviation="21.825"/>
<feComposite in2="hardAlpha" operator="out"/>
<feColorMatrix type="matrix" values="0 0 0 0 1 0 0 0 0 1 0 0 0 0 1 0 0 0 0.15 0"/>
<feBlend mode="normal" in2="BackgroundImageFix" result="effect1_dropShadow_14_925"/>
<feBlend mode="normal" in="SourceGraphic" in2="effect1_dropShadow_14_925" result="shape"/>
</filter>
<filter id="filter1_d_14_925" x="7.99599" y="162.095" width="167.333" height="44.7278" filterUnits="userSpaceOnUse" color-interpolation-filters="sRGB">
<feFlood flood-opacity="0" result="BackgroundImageFix"/>
<feColorMatrix in="SourceAlpha" type="matrix" values="0 0 0 0 0 0 0 0 0 0 0 0 0 0 0 0 0 0 127 0" result="hardAlpha"/>
<feOffset/>
<feGaussianBlur stdDeviation="1.94768"/>
<feComposite in2="hardAlpha" operator="out"/>
<feColorMatrix type="matrix" values="0 0 0 0 0.677438 0 0 0 0 0.571012 0 0 0 0 0.5397 0 0 0 0.25 0"/>
<feBlend mode="normal" in2="BackgroundImageFix" result="effect1_dropShadow_14_925"/>
<feBlend mode="normal" in="SourceGraphic" in2="effect1_dropShadow_14_925" result="shape"/>
</filter>
<filter id="filter2_d_14_925" x="6.69252" y="218.148" width="170.368" height="35.7262" filterUnits="userSpaceOnUse" color-interpolation-filters="sRGB">
<feFlood flood-opacity="0" result="BackgroundImageFix"/>
<feColorMatrix in="SourceAlpha" type="matrix" values="0 0 0 0 0 0 0 0 0 0 0 0 0 0 0 0 0 0 127 0" result="hardAlpha"/>
<feOffset/>
<feGaussianBlur stdDeviation="1.94768"/>
<feComposite in2="hardAlpha" operator="out"/>
<feColorMatrix type="matrix" values="0 0 0 0 0.677438 0 0 0 0 0.571012 0 0 0 0 0.5397 0 0 0 0.25 0"/>
<feBlend mode="normal" in2="BackgroundImageFix" result="effect1_dropShadow_14_925"/>
<feBlend mode="normal" in="SourceGraphic" in2="effect1_dropShadow_14_925" result="shape"/>
</filter>
</defs>
</svg>
