<svg width="160" height="52" viewBox="0 0 160 52" fill="none" xmlns="http://www.w3.org/2000/svg">
<path d="M41.7853 40.902L35.2423 28.9568H41.1478L44.8052 35.9025L50.1402 28.9568H56.4484L46.9526 40.902L45.6776 51.3373H40.5103L41.7853 40.902Z" fill="#F5F5F5"/>
<path d="M58.8923 28.9568H66.0393C66.7998 28.9568 67.6275 29.0463 68.5223 29.2253C69.4394 29.3818 70.2559 29.8069 70.9717 30.5003C71.3743 30.8806 71.7099 31.3951 71.9783 32.0438C72.2691 32.6925 72.4145 33.4531 72.4145 34.3255C72.4145 35.7123 72.0678 36.8755 71.3743 37.8151C70.9941 38.3295 70.6026 38.721 70.1999 38.9894C69.7973 39.2355 69.4058 39.4145 69.0256 39.5263C69.6072 39.6605 70.0993 39.8507 70.5019 40.0967C70.927 40.3428 71.2849 40.6 71.5757 40.8685C72.0901 41.3829 72.4592 41.931 72.6829 42.5126C72.9066 43.0718 73.0185 43.7094 73.0185 44.4252C73.0185 45.6331 72.8283 46.6285 72.4481 47.4115C72.0678 48.172 71.654 48.776 71.2066 49.2234C70.7592 49.6708 70.2671 50.0398 69.7302 50.3306C69.1933 50.5991 68.6341 50.8116 68.0525 50.9682C67.4709 51.1024 66.8669 51.2031 66.2406 51.2702C65.6366 51.3149 65.0438 51.3373 64.4622 51.3373H56.1409L58.8923 28.9568ZM62.9523 38.0499H63.9925C64.4399 38.0499 64.932 38.0052 65.4689 37.9157C66.0057 37.8262 66.4643 37.5914 66.8446 37.2111C67.0906 36.965 67.2808 36.663 67.415 36.3051C67.5492 35.9472 67.6163 35.5781 67.6163 35.1979C67.6163 34.7505 67.538 34.3926 67.3814 34.1241C67.2248 33.8557 67.0683 33.6544 66.9117 33.5202C66.5985 33.2741 66.2294 33.1287 65.8044 33.084C65.4017 33.0169 65.0103 32.9833 64.63 32.9833H63.5563L62.9523 38.0499ZM61.8115 47.3108H63.6905C63.9366 47.3108 64.205 47.2996 64.4958 47.2772C64.809 47.2549 65.1221 47.2213 65.4353 47.1766C65.7485 47.1095 66.0393 47.02 66.3077 46.9082C66.5985 46.7963 66.8446 46.6509 67.0459 46.472C67.2025 46.3377 67.3702 46.1029 67.5492 45.7673C67.7505 45.4318 67.8512 44.9508 67.8512 44.3245C67.8512 44.0784 67.8064 43.7988 67.717 43.4857C67.6499 43.1725 67.4933 42.8929 67.2472 42.6468C67.0683 42.4679 66.8446 42.3336 66.5761 42.2442C66.3077 42.1323 66.0393 42.054 65.7708 42.0093C65.5024 41.9422 65.2452 41.9086 64.9991 41.9086C64.7754 41.8863 64.6076 41.8751 64.4958 41.8751H62.4826L61.8115 47.3108Z" fill="#F5F5F5"/>
<path d="M90.6259 33.3188H83.3111L82.7743 37.6473H89.8206L89.2837 42.0093H82.2374L81.6334 46.9753H89.0824L88.5455 51.3373H76.0635L78.8149 28.9568H91.1627L90.6259 33.3188Z" fill="#F5F5F5"/>
<path d="M102.67 28.9568C103.207 28.9568 103.733 28.9792 104.247 29.0239C104.784 29.0687 105.299 29.1582 105.791 29.2924C106.305 29.4266 106.797 29.6279 107.267 29.8963C107.737 30.1648 108.184 30.5227 108.609 30.9701C108.989 31.3727 109.347 31.9431 109.683 32.6813C110.041 33.4195 110.22 34.3702 110.22 35.5334C110.22 36.6071 110.052 37.5578 109.716 38.3855C109.381 39.1908 108.934 39.873 108.374 40.4323C107.882 40.902 107.323 41.2935 106.697 41.6066C106.07 41.9198 105.444 42.1323 104.818 42.2442L110.589 51.3373H104.549L99.147 42.5126L98.0733 51.3373H92.906L95.6574 28.9568H102.67ZM99.5496 39.1237H100.825C101.25 39.1237 101.742 39.0789 102.301 38.9894C102.883 38.9 103.397 38.6763 103.845 38.3184C104.292 37.9605 104.594 37.5578 104.75 37.1104C104.907 36.6407 104.985 36.1709 104.985 35.7012C104.985 35.3433 104.918 34.963 104.784 34.5603C104.65 34.1577 104.359 33.811 103.912 33.5202C103.576 33.2965 103.162 33.1511 102.67 33.084C102.2 33.0169 101.675 32.9833 101.093 32.9833H100.321L99.5496 39.1237Z" fill="#F5F5F5"/>
<path d="M117.716 28.9568L121.642 43.2843L129.057 28.9568H134.828L122.615 51.3373H119.058L112.347 28.9568H117.716Z" fill="#F5F5F5"/>
<path d="M142.671 28.9568L139.92 51.3373H134.752L137.504 28.9568H142.671Z" fill="#F5F5F5"/>
<path d="M159.47 33.3188H152.156L151.619 37.6473H158.665L158.128 42.0093H151.082L150.478 46.9753H157.927L157.39 51.3373H144.908L147.659 28.9568H160.007L159.47 33.3188Z" fill="#F5F5F5"/>
<path d="M30.9529 50.4223C30.7206 50.5385 30.3865 50.6837 29.9508 50.858C29.5442 51.0323 29.0504 51.2066 28.4695 51.3808C27.8885 51.5551 27.2059 51.7003 26.4217 51.8165C25.6665 51.9327 24.8241 51.9908 23.8946 51.9908C22.5294 51.9908 21.2949 51.8601 20.1912 51.5987C19.1164 51.3373 18.1579 51.0178 17.3155 50.6401C16.4732 50.2335 15.747 49.8123 15.1371 49.3766C14.5271 48.9119 14.0333 48.4907 13.6557 48.1131C13.1909 47.6483 12.7262 47.0965 12.2614 46.4574C11.7967 45.8184 11.3755 45.0922 10.9979 44.2789C10.6203 43.4366 10.3153 42.5071 10.0829 41.4905C9.85056 40.4738 9.73438 39.3265 9.73438 38.0484C9.73438 35.4923 10.1556 33.2122 10.9979 31.208C11.8693 29.2037 12.9876 27.519 14.3528 26.1538C15.5728 24.9339 17.1413 23.8737 19.0583 22.9732C21.0045 22.0728 23.3137 21.6226 25.986 21.6226C27.1188 21.6226 28.1354 21.7097 29.0359 21.884C29.9363 22.0292 30.7206 22.218 31.3886 22.4504C32.0858 22.6537 32.6667 22.8861 33.1314 23.1475C33.5962 23.3799 33.9593 23.5687 34.2207 23.7139L33.3929 30.8158C33.1024 30.5254 32.7393 30.2058 32.3036 29.8573C31.8679 29.5087 31.3451 29.1892 30.7351 28.8987C30.1542 28.6083 29.4716 28.3759 28.6873 28.2016C27.9321 27.9983 27.0752 27.8966 26.1167 27.8966C24.7224 27.8966 23.4589 28.1 22.3261 28.5066C21.1933 28.9133 20.1621 29.6249 19.2326 30.6415C18.3322 31.6001 17.6641 32.6893 17.2284 33.9093C16.8218 35.1292 16.6184 36.3202 16.6184 37.482C16.6184 38.702 16.8218 39.8348 17.2284 40.8805C17.6641 41.9262 18.216 42.783 18.8841 43.4511C19.5521 44.1192 20.409 44.6711 21.4547 45.1068C22.5004 45.5134 23.6913 45.7167 25.0274 45.7167C26.4798 45.7167 27.7723 45.4698 28.9052 44.9761C30.038 44.4532 31.011 43.8578 31.8243 43.1897L30.9529 50.4223Z" fill="#F5F5F5"/>
<path d="M4.90746 22.2112L-0.00390625 16.8533C26.7854 -13.6865 47.0261 4.1284 53.7979 16.8533C35.9384 -7.43564 13.7628 10.3048 4.90746 22.2112Z" fill="#269397"/>
<path d="M48.6633 27.0034H56.0303C43.5287 -4.96519 16.2929 10.0367 8.92585 21.6455C29.2857 0.571271 45.9843 17.1805 48.6633 27.0034Z" fill="#269397"/>
</svg>
