<svg width="19" height="18" viewBox="0 0 19 18" fill="none" xmlns="http://www.w3.org/2000/svg">
<path d="M17.3744 9.17493C17.3744 8.52743 17.3208 8.05493 17.2048 7.56494H9.66016V10.4874H14.0887C13.9994 11.2137 13.5173 12.3074 12.4458 13.0424L12.4308 13.1402L14.8163 14.9513L14.9816 14.9674C16.4994 13.5937 17.3744 11.5724 17.3744 9.17493Z" fill="#4285F4"/>
<path d="M9.66294 16.8752C11.8325 16.8752 13.6539 16.1751 14.9843 14.9677L12.4486 13.0426C11.7701 13.5064 10.8593 13.8301 9.66294 13.8301C7.53796 13.8301 5.73441 12.4564 5.09149 10.5576L4.99726 10.5655L2.51681 12.4467L2.48438 12.5351C3.80578 15.1076 6.52007 16.8752 9.66294 16.8752Z" fill="#34A853"/>
<path d="M5.08925 10.5576C4.91961 10.0676 4.82143 9.54257 4.82143 9.0001C4.82143 8.45756 4.91961 7.93258 5.08032 7.44259L5.07583 7.33823L2.56429 5.42676L2.48212 5.46506C1.9375 6.53258 1.625 7.73135 1.625 9.0001C1.625 10.2688 1.9375 11.4676 2.48212 12.5351L5.08925 10.5576Z" fill="#FBBC05"/>
<path d="M9.66298 4.16998C11.1719 4.16998 12.1897 4.80873 12.7701 5.34251L15.038 3.1725C13.6451 1.90375 11.8326 1.125 9.66298 1.125C6.52009 1.125 3.80579 2.89249 2.48438 5.46497L5.08258 7.44249C5.73443 5.54375 7.53799 4.16998 9.66298 4.16998Z" fill="#EB4335"/>
</svg>
