<svg width="289" height="116" viewBox="0 0 289 116" fill="none" xmlns="http://www.w3.org/2000/svg">
<g filter="url(#filter0_di_14_739)">
<rect x="11" y="10.5" width="95" height="95" rx="47.5" fill="#493E71" shape-rendering="crispEdges"/>
<rect x="12.0326" y="11.5326" width="92.9348" height="92.9348" rx="46.4674" stroke="#8B7AC7" stroke-width="2.06522" shape-rendering="crispEdges"/>
<path d="M98 57.3259C98 79.59 80.0914 97.6387 58 97.6387V38.2002L67.0883 40.9288L58.8966 43.1531V49.3329L62.4828 51.3096V58.9075L67.3793 61.6064V54.0086L71.8845 56.4919V64.0897L76.6897 66.7383V59.1405L80.2069 61.0792V51.9046L85.9866 54.3315L81.2414 56.1784V83.1817C100.384 67.8145 97.0587 38.7984 84.101 26.7773C83.1832 25.9801 82.229 25.2241 81.2414 24.5123C82.2389 25.177 83.1936 25.9355 84.101 26.7773C92.612 34.17 98 45.1138 98 57.3259Z" fill="white"/>
<path d="M34.6897 83.1817V50.5145L40.4694 52.9413L35.7241 54.7882V90.814C25.0344 83.5774 18 71.2795 18 57.3259C18 43.7968 24.6128 31.8243 34.7586 24.5123C21.5172 35.0844 10.8276 63.5118 34.6897 83.1817Z" fill="white"/>
<path d="M85.7931 74.8411C98.3448 56.1784 87.1034 23.0658 58 22.3707C28.8969 23.0666 17.6553 56.2947 30.2069 74.9801C14.0002 53.3379 27.7934 17.9866 58 17.6387C88.2069 17.9862 102 53.2251 85.7931 74.8411Z" fill="white"/>
<path d="M42.6141 72.7929V85.2143L48.8209 81.8273V69.4136L42.6141 72.7929Z" fill="white"/>
<path d="M44.3451 64.2465L39.7934 66.7293V58.5025L44.3451 60.9919V64.2465Z" fill="white"/>
<path d="M48.7934 53.1395V61.5913L53.3451 59.1132V55.6289L48.7934 53.1395Z" fill="white"/>
</g>
<g filter="url(#filter1_d_14_739)">
<path d="M147.395 31.1201C146.527 29.8802 145.745 29.0045 145.047 28.4931C144.35 27.9661 143.598 27.5942 142.792 27.3772C141.986 27.1447 141.142 27.0285 140.258 27.0285C138.956 27.0285 137.747 27.3229 136.632 27.9119C135.516 28.4853 134.547 29.2757 133.726 30.2831C132.92 31.275 132.284 32.4374 131.819 33.7703C131.354 35.0876 131.122 36.4903 131.122 37.9781C131.122 39.4814 131.347 40.8996 131.796 42.2324C132.261 43.5498 132.896 44.7044 133.702 45.6963C134.508 46.6882 135.469 47.4786 136.585 48.0676C137.701 48.641 138.925 48.9277 140.258 48.9277C141.188 48.9277 142.056 48.7805 142.862 48.486C143.668 48.1761 144.396 47.7731 145.047 47.2772C145.714 46.7812 146.295 46.2155 146.791 45.5801C147.287 44.9291 147.674 44.255 147.953 43.5575L155.439 45.6498C154.958 47.1687 154.253 48.579 153.323 49.8809C152.394 51.1673 151.27 52.2831 149.953 53.2285C148.651 54.174 147.178 54.9179 145.535 55.4603C143.908 56.0028 142.149 56.274 140.258 56.274C138.662 56.274 137.135 56.057 135.678 55.6231C134.222 55.1891 132.858 54.5769 131.587 53.7865C130.332 52.9961 129.185 52.0429 128.146 50.927C127.123 49.8111 126.248 48.579 125.519 47.2307C124.791 45.8668 124.225 44.4099 123.822 42.8601C123.419 41.2948 123.218 39.6674 123.218 37.9781C123.218 35.4519 123.659 33.0884 124.543 30.8876C125.426 28.6713 126.635 26.7417 128.169 25.0989C129.704 23.4406 131.502 22.1387 133.563 21.1933C135.64 20.2324 137.871 19.752 140.258 19.752C142.165 19.752 143.769 19.9922 145.071 20.4726C146.372 20.9376 147.806 21.8675 149.371 23.2624H154.579V31.1201H147.395ZM188.345 30.3296C188.267 29.7872 188.073 29.2757 187.763 28.7953C187.469 28.3148 187.081 27.9041 186.601 27.5632C186.136 27.2067 185.601 26.9277 184.997 26.7263C184.408 26.5248 183.788 26.424 183.137 26.424C182.548 26.424 181.998 26.486 181.487 26.61C180.975 26.734 180.526 26.9277 180.138 27.1912C179.766 27.4392 179.464 27.7646 179.231 28.1676C179.015 28.5706 178.906 29.051 178.906 29.609C178.906 30.3064 179.053 30.8643 179.348 31.2828C179.658 31.6857 180.045 32.019 180.51 32.2824C180.991 32.5459 181.518 32.7551 182.091 32.9101C182.664 33.0651 183.222 33.2356 183.765 33.4216L190.158 35.5603C191.041 35.8703 191.87 36.2965 192.645 36.839C193.42 37.3814 194.087 38.0401 194.645 38.815C195.218 39.5899 195.668 40.4811 195.993 41.4885C196.319 42.4959 196.481 43.6273 196.481 44.8826C196.481 46.5875 196.164 48.1451 195.528 49.5554C194.908 50.9658 194.032 52.1747 192.901 53.1821C191.77 54.1894 190.414 54.9721 188.833 55.5301C187.252 56.088 185.501 56.367 183.579 56.367C182.23 56.367 180.952 56.212 179.743 55.902C178.55 55.6076 177.457 55.1736 176.465 54.6002C175.473 54.0267 174.605 53.3448 173.861 52.5544C173.117 51.7484 172.536 50.8418 172.118 49.8344H169.723V42.8369H178.139V44.2782C178.139 44.9756 178.247 45.6188 178.464 46.2078C178.697 46.7967 179.038 47.3082 179.487 47.7421C179.937 48.1761 180.502 48.517 181.184 48.765C181.866 48.9975 182.664 49.1137 183.579 49.1137C184.974 49.1137 186.035 48.796 186.764 48.1606C187.492 47.5096 187.856 46.6107 187.856 45.4638C187.856 44.8749 187.725 44.3867 187.461 43.9992C187.213 43.5963 186.888 43.2631 186.485 42.9996C186.082 42.7206 185.632 42.4881 185.136 42.3022C184.64 42.1162 184.152 41.9457 183.672 41.7907L178.348 40.0704C177.341 39.7604 176.364 39.3265 175.419 38.7685C174.489 38.2106 173.66 37.5132 172.931 36.6762C172.218 35.8393 171.645 34.8629 171.211 33.747C170.793 32.6156 170.583 31.3293 170.583 29.8879C170.583 28.2141 170.893 26.7263 171.513 25.4244C172.133 24.107 173.001 22.9989 174.117 22.1C175.233 21.2011 176.558 20.5191 178.092 20.0542C179.627 19.5892 181.308 19.3568 183.137 19.3568C184.578 19.3568 185.911 19.5272 187.136 19.8682C188.36 20.1937 189.453 20.6354 190.414 21.1933C191.39 21.7513 192.211 22.3944 192.878 23.1229C193.56 23.8358 194.079 24.5797 194.435 25.3546H196.76V32.3754H188.345V30.3296ZM211.323 20.4029H239.36V32.4219H231.781V27.4237H222.738V34.3747H229.736V41.1165H222.738V49.2765H231.781V43.0228H239.36V55.6463H211.323V49.2765H215.02V27.4237H211.323V20.4029ZM254.365 20.4029H270.638C272.452 20.4029 274.118 20.6896 275.637 21.2631C277.155 21.821 278.465 22.5804 279.565 23.5413C280.666 24.5022 281.526 25.6104 282.146 26.8657C282.766 28.1211 283.076 29.4307 283.076 30.7946C283.076 32.4374 282.828 33.9795 282.332 35.4209C281.851 36.8467 281.1 38.0866 280.077 39.1405C279.054 40.1944 277.76 41.0313 276.195 41.6512C274.629 42.2557 272.777 42.5579 270.638 42.5579H265.733V49.2765H268.965V55.6463H254.365V49.2765H258.015V26.796H254.365V20.4029ZM265.733 26.796V36.2578H268.918C270.685 36.2578 272.087 35.8858 273.126 35.1419C274.164 34.398 274.683 33.2201 274.683 31.6083C274.683 30.1049 274.195 28.927 273.219 28.0746C272.242 27.2222 270.809 26.796 268.918 26.796H265.733Z" fill="#8B7AC7"/>
</g>
<g filter="url(#filter2_d_14_739)">
<path d="M144.739 78.0257C144.486 77.5948 144.15 77.2565 143.73 77.0108C143.314 76.7651 142.849 76.6422 142.335 76.6422C141.897 76.6422 141.496 76.7348 141.133 76.9201C140.77 77.1053 140.458 77.3548 140.198 77.6685C139.941 77.9785 139.74 78.3395 139.597 78.7515C139.453 79.1598 139.381 79.5907 139.381 80.0443C139.381 80.5811 139.46 81.0574 139.619 81.4732C139.778 81.8852 139.984 82.2292 140.237 82.5052C140.494 82.7773 140.799 83.006 141.15 83.1913C141.502 83.3727 141.897 83.4634 142.335 83.4634C142.932 83.4634 143.452 83.3198 143.894 83.0325C144.337 82.7414 144.715 82.2651 145.029 81.6036L146.026 82.0742C145.883 82.4825 145.639 82.8775 145.295 83.2593C144.951 83.6373 144.526 83.9435 144.019 84.1779C143.516 84.4084 142.959 84.5237 142.347 84.5237C141.761 84.5237 141.222 84.4141 140.731 84.1949C140.239 83.9718 139.801 83.6562 139.415 83.248C139.033 82.8397 138.74 82.3559 138.536 81.7964C138.336 81.2369 138.236 80.6529 138.236 80.0443C138.236 79.4319 138.336 78.8536 138.536 78.3093C138.74 77.7649 139.024 77.2924 139.387 76.8917C139.753 76.4872 140.188 76.1697 140.691 75.9391C141.197 75.7048 141.745 75.5876 142.335 75.5876C142.861 75.5876 143.314 75.6632 143.696 75.8144C144.078 75.9618 144.401 76.1395 144.666 76.3474C144.934 76.5515 145.165 76.7745 145.357 77.0165H145.958V78.0257H144.739ZM147.432 75.7577H153.59V78.1902H152.428V76.7386H149.36V79.4886H151.94V80.4639H149.36V83.3784H152.428V81.9268H153.59V84.3536H147.432V83.3784H148.249V76.7386H147.432V75.7577ZM154.957 75.7577H158.534C158.916 75.7577 159.268 75.8087 159.589 75.9108C159.914 76.0091 160.194 76.1565 160.428 76.3531C160.666 76.5458 160.852 76.7878 160.984 77.0788C161.116 77.3699 161.182 77.7044 161.182 78.0824C161.182 78.2979 161.143 78.5115 161.063 78.7232C160.988 78.9311 160.88 79.1258 160.74 79.3072C160.604 79.4849 160.441 79.6436 160.252 79.7835C160.063 79.9234 159.857 80.0311 159.634 80.1067C159.729 80.1483 159.823 80.2088 159.918 80.2881C160.016 80.3637 160.107 80.4582 160.19 80.5716C160.277 80.6813 160.354 80.8079 160.423 80.9515C160.494 81.0914 160.551 81.2426 160.593 81.4052L161.069 83.2763H161.812L161.823 84.3536H160.15L159.51 81.7397C159.392 81.271 159.213 80.927 158.971 80.7077C158.733 80.4847 158.406 80.3732 157.99 80.3732H156.884V83.3784H157.746V84.3536H154.957V83.3784H155.773V76.7386H154.957V75.7577ZM156.884 76.7386V79.4433H158.534C158.75 79.4433 158.946 79.4149 159.124 79.3582C159.306 79.3015 159.461 79.2165 159.589 79.1031C159.721 78.9897 159.823 78.8498 159.895 78.6835C159.971 78.5134 160.009 78.3168 160.009 78.0938C160.009 77.6666 159.88 77.334 159.623 77.0958C159.366 76.8577 158.958 76.7386 158.398 76.7386H156.884ZM165.214 83.3784H166.002V76.6876H164.04V78.0257H162.877V75.7577H170.544V78.0257H169.381V76.6876H167.113V83.3784H167.998V84.3536H165.214V83.3784ZM171.819 75.7577H174.563V76.7386H173.747V83.3784H174.563V84.3536H171.819V83.3784H172.636V76.7386H171.819V75.7577ZM176.417 75.7577H182.575V78.1902H181.413V76.7386H178.345V79.5H181.299V80.4526H178.345V83.3784H179.207V84.3536H176.417V83.3784H177.234V76.7386H176.417V75.7577ZM183.703 75.7577H186.448V76.7386H185.631V83.3784H186.448V84.3536H183.703V83.3784H184.52V76.7386H183.703V75.7577ZM188.302 75.7577H194.459V78.1902H193.297V76.7386H190.229V79.4886H192.809V80.4639H190.229V83.3784H193.297V81.9268H194.459V84.3536H188.302V83.3784H189.118V76.7386H188.302V75.7577ZM195.826 75.7577H199.024C199.417 75.7577 199.791 75.8087 200.146 75.9108C200.502 76.0128 200.832 76.1565 201.139 76.3417C201.445 76.5269 201.723 76.75 201.972 77.0108C202.222 77.2678 202.433 77.5551 202.607 77.8727C202.785 78.1902 202.921 78.5323 203.015 78.8989C203.11 79.2618 203.157 79.6398 203.157 80.033C203.157 80.4337 203.11 80.8174 203.015 81.184C202.921 81.5507 202.785 81.8947 202.607 82.216C202.433 82.5373 202.222 82.8303 201.972 83.0949C201.723 83.3557 201.445 83.5806 201.139 83.7696C200.832 83.9548 200.502 84.0985 200.146 84.2005C199.791 84.3026 199.417 84.3536 199.024 84.3536H195.826V83.3784H196.642V76.7386H195.826V75.7577ZM197.753 76.7386V83.3784H199.092C199.489 83.3784 199.861 83.2914 200.209 83.1175C200.56 82.9437 200.866 82.7074 201.127 82.4088C201.388 82.1064 201.594 81.7529 201.745 81.3485C201.896 80.9402 201.972 80.5017 201.972 80.033C201.972 79.5718 201.896 79.1409 201.745 78.7402C201.594 78.3395 201.388 77.9917 201.127 77.6969C200.866 77.3982 200.56 77.1639 200.209 76.9938C199.861 76.8237 199.489 76.7386 199.092 76.7386H197.753ZM211.787 78.0938C211.787 77.7611 211.726 77.5117 211.605 77.3453C211.484 77.179 211.35 77.0524 211.203 76.9654C211.059 76.8747 210.9 76.8067 210.726 76.7613C210.552 76.7122 210.379 76.6876 210.205 76.6876C209.917 76.6876 209.666 76.7216 209.451 76.7897C209.235 76.8539 209.056 76.9427 208.912 77.0561C208.772 77.1696 208.666 77.3019 208.594 77.4531C208.523 77.6043 208.487 77.763 208.487 77.9294C208.487 78.1788 208.53 78.3811 208.617 78.5361C208.708 78.6873 208.821 78.8101 208.957 78.9046C209.093 78.9953 209.243 79.0672 209.405 79.1201C209.572 79.173 209.73 79.2259 209.881 79.2788L211.027 79.6531C211.371 79.7627 211.673 79.8874 211.934 80.0273C212.199 80.1672 212.42 80.3335 212.597 80.5263C212.775 80.7153 212.909 80.9345 213 81.184C213.095 81.4335 213.142 81.7227 213.142 82.0516C213.142 82.4069 213.068 82.7358 212.921 83.0382C212.777 83.3406 212.575 83.6033 212.314 83.8263C212.053 84.0493 211.741 84.2251 211.378 84.3536C211.019 84.4784 210.624 84.5408 210.193 84.5408C209.751 84.5408 209.373 84.4897 209.059 84.3877C208.746 84.2894 208.481 84.1571 208.265 83.9907C208.054 83.8206 207.884 83.6279 207.755 83.4124C207.627 83.1969 207.526 82.9758 207.455 82.749H207.024V81.7737H208.453C208.453 82.1933 208.496 82.49 208.583 82.6639C208.674 82.8378 208.798 82.9834 208.957 83.1005C209.116 83.2139 209.305 83.3009 209.524 83.3614C209.743 83.4181 209.985 83.4464 210.25 83.4464C210.507 83.4464 210.738 83.4162 210.942 83.3557C211.15 83.2952 211.325 83.2083 211.469 83.0949C211.617 82.9777 211.728 82.8378 211.804 82.6753C211.883 82.5089 211.923 82.3218 211.923 82.1139C211.923 81.8833 211.874 81.6887 211.775 81.5299C211.681 81.3674 211.558 81.2294 211.407 81.116C211.256 81.0026 211.089 80.91 210.908 80.8381C210.73 80.7663 210.558 80.7039 210.392 80.651L209.15 80.2995C208.878 80.2163 208.628 80.1105 208.402 79.9819C208.179 79.8534 207.986 79.6966 207.823 79.5113C207.664 79.3261 207.542 79.1106 207.455 78.8649C207.368 78.6154 207.324 78.3282 207.324 78.0031C207.324 77.6742 207.388 77.3661 207.517 77.0788C207.646 76.7915 207.835 76.5402 208.084 76.3247C208.334 76.1092 208.638 75.941 208.997 75.8201C209.36 75.6953 209.774 75.6329 210.239 75.6329C210.545 75.6329 210.826 75.6689 211.084 75.7407C211.344 75.8125 211.579 75.9146 211.787 76.0469C211.998 76.1754 212.184 76.3323 212.342 76.5175C212.505 76.6989 212.641 76.8993 212.751 77.1185H213.176V78.0938H211.787ZM214.474 75.7577H220.632V78.1902H219.469V76.7386H216.402V79.4886H218.982V80.4639H216.402V83.3784H219.469V81.9268H220.632V84.3536H214.474V83.3784H215.291V76.7386H214.474V75.7577ZM228.099 78.0257C227.846 77.5948 227.51 77.2565 227.09 77.0108C226.674 76.7651 226.209 76.6422 225.695 76.6422C225.257 76.6422 224.856 76.7348 224.493 76.9201C224.13 77.1053 223.818 77.3548 223.557 77.6685C223.3 77.9785 223.1 78.3395 222.956 78.7515C222.813 79.1598 222.741 79.5907 222.741 80.0443C222.741 80.5811 222.82 81.0574 222.979 81.4732C223.138 81.8852 223.344 82.2292 223.597 82.5052C223.854 82.7773 224.158 83.006 224.51 83.1913C224.862 83.3727 225.257 83.4634 225.695 83.4634C226.292 83.4634 226.812 83.3198 227.254 83.0325C227.697 82.7414 228.075 82.2651 228.388 81.6036L229.386 82.0742C229.243 82.4825 228.999 82.8775 228.655 83.2593C228.311 83.6373 227.886 83.9435 227.379 84.1779C226.876 84.4084 226.319 84.5237 225.706 84.5237C225.121 84.5237 224.582 84.4141 224.09 84.1949C223.599 83.9718 223.161 83.6562 222.775 83.248C222.393 82.8397 222.1 82.3559 221.896 81.7964C221.696 81.2369 221.596 80.6529 221.596 80.0443C221.596 79.4319 221.696 78.8536 221.896 78.3093C222.1 77.7649 222.384 77.2924 222.747 76.8917C223.113 76.4872 223.548 76.1697 224.051 75.9391C224.557 75.7048 225.105 75.5876 225.695 75.5876C226.221 75.5876 226.674 75.6632 227.056 75.8144C227.438 75.9618 227.761 76.1395 228.026 76.3474C228.294 76.5515 228.524 76.7745 228.717 77.0165H229.318V78.0257H228.099ZM230.622 75.7577H233.406V76.7386H232.527V80.7417C232.527 81.2218 232.58 81.632 232.686 81.9722C232.796 82.3086 232.945 82.5845 233.134 82.8C233.327 83.0117 233.554 83.1667 233.815 83.265C234.079 83.3633 234.368 83.4124 234.682 83.4124C235.007 83.4124 235.306 83.3689 235.578 83.282C235.85 83.195 236.083 83.0495 236.275 82.8454C236.472 82.6375 236.623 82.3634 236.729 82.0232C236.839 81.6792 236.893 81.2521 236.893 80.7417V76.7386H235.964V75.7577H238.748V76.7386H237.982V80.617C237.982 81.2369 237.895 81.7869 237.721 82.267C237.551 82.7471 237.317 83.1497 237.018 83.4748C236.72 83.7999 236.368 84.0474 235.964 84.2176C235.559 84.3839 235.124 84.467 234.659 84.467C234.206 84.467 233.78 84.3839 233.384 84.2176C232.99 84.0512 232.646 83.8074 232.352 83.4861C232.061 83.1648 231.83 82.7736 231.66 82.3124C231.494 81.8474 231.41 81.3163 231.41 80.7191V76.7386H230.622V75.7577ZM239.813 75.7577H243.391C243.773 75.7577 244.125 75.8087 244.446 75.9108C244.771 76.0091 245.051 76.1565 245.285 76.3531C245.523 76.5458 245.708 76.7878 245.841 77.0788C245.973 77.3699 246.039 77.7044 246.039 78.0824C246.039 78.2979 245.999 78.5115 245.92 78.7232C245.844 78.9311 245.737 79.1258 245.597 79.3072C245.461 79.4849 245.298 79.6436 245.109 79.7835C244.92 79.9234 244.714 80.0311 244.491 80.1067C244.586 80.1483 244.68 80.2088 244.775 80.2881C244.873 80.3637 244.964 80.4582 245.047 80.5716C245.134 80.6813 245.211 80.8079 245.279 80.9515C245.351 81.0914 245.408 81.2426 245.449 81.4052L245.926 83.2763H246.669L246.68 84.3536H245.007L244.366 81.7397C244.249 81.271 244.07 80.927 243.828 80.7077C243.59 80.4847 243.263 80.3732 242.847 80.3732H241.741V83.3784H242.603V84.3536H239.813V83.3784H240.63V76.7386H239.813V75.7577ZM241.741 76.7386V79.4433H243.391C243.607 79.4433 243.803 79.4149 243.981 79.3582C244.162 79.3015 244.317 79.2165 244.446 79.1031C244.578 78.9897 244.68 78.8498 244.752 78.6835C244.828 78.5134 244.865 78.3168 244.865 78.0938C244.865 77.6666 244.737 77.334 244.48 77.0958C244.223 76.8577 243.815 76.7386 243.255 76.7386H241.741ZM248.313 75.7577H251.057V76.7386H250.24V83.3784H251.057V84.3536H248.313V83.3784H249.129V76.7386H248.313V75.7577ZM254.669 83.3784H255.457V76.6876H253.495V78.0257H252.333V75.7577H259.999V78.0257H258.836V76.6876H256.568V83.3784H257.453V84.3536H254.669V83.3784ZM260.752 75.7577H263.542V76.7386H262.726L264.342 79.5L266.071 76.7386H265.175V75.7577H267.965V76.7386H267.233L264.818 80.4015V83.3784H265.703V84.3536H262.913V83.3784H263.701V80.3732L261.422 76.7386H260.752V75.7577ZM121.912 94.7577H128.07V97.1902H126.907V95.7386H123.84V98.4886H126.42V99.4639H123.84V102.378H126.907V100.927H128.07V103.354H121.912V102.378H122.728V95.7386H121.912V94.7577ZM134.754 94.7577H137.544V95.7386H136.813V103.354H135.361L131.364 96.2263V102.378H132.248V103.354H129.459V102.378H130.252V95.7386H129.436V94.7463H131.749L135.673 101.806L135.718 101.534V95.7386H134.754V94.7577ZM145.51 103.388V101.664C145.367 101.963 145.187 102.223 144.972 102.446C144.756 102.666 144.516 102.847 144.252 102.991C143.987 103.134 143.704 103.242 143.401 103.314C143.103 103.386 142.798 103.422 142.488 103.422C141.929 103.422 141.413 103.329 140.94 103.144C140.468 102.955 140.039 102.656 139.653 102.248C139.271 101.84 138.978 101.356 138.774 100.796C138.574 100.237 138.474 99.6529 138.474 99.0443C138.474 98.4319 138.574 97.8536 138.774 97.3093C138.978 96.7649 139.262 96.2905 139.625 95.886C139.992 95.4816 140.426 95.164 140.929 94.9335C141.436 94.7029 141.984 94.5876 142.573 94.5876C143.118 94.5876 143.585 94.6651 143.974 94.8201C144.367 94.975 144.702 95.164 144.977 95.3871C145.257 95.6063 145.48 95.8161 145.647 96.0165H146.197V97.0257H144.977C144.724 96.5948 144.388 96.2546 143.968 96.0051C143.552 95.7556 143.086 95.6347 142.568 95.6422C142.133 95.6422 141.734 95.7348 141.371 95.9201C141.008 96.1053 140.697 96.3548 140.436 96.6685C140.179 96.9823 139.978 97.3433 139.835 97.7515C139.691 98.1598 139.619 98.5907 139.619 99.0443C139.619 99.5471 139.699 100.014 139.857 100.445C140.016 100.876 140.218 101.225 140.464 101.494C140.71 101.762 141.012 101.985 141.371 102.163C141.734 102.337 142.135 102.424 142.573 102.424C143.299 102.424 143.894 102.248 144.359 101.896C144.824 101.541 145.149 100.989 145.335 100.241H142.931V99.2655H146.565V103.388H145.51ZM148.657 94.7577H151.402V95.7386H150.585V102.378H151.402V103.354H148.657V102.378H149.474V95.7386H148.657V94.7577ZM158.574 94.7577H161.364V95.7386H160.632V103.354H159.181L155.183 96.2263V102.378H156.068V103.354H153.278V102.378H154.072V95.7386H153.255V94.7463H155.569L159.493 101.806L159.538 101.534V95.7386H158.574V94.7577ZM162.696 94.7577H168.854V97.1902H167.691V95.7386H164.624V98.4886H167.204V99.4639H164.624V102.378H167.691V100.927H168.854V103.354H162.696V102.378H163.513V95.7386H162.696V94.7577ZM170.22 94.7577H176.378V97.1902H175.216V95.7386H172.148V98.4886H174.728V99.4639H172.148V102.378H175.216V100.927H176.378V103.354H170.22V102.378H171.037V95.7386H170.22V94.7577ZM177.744 94.7577H181.322C181.704 94.7577 182.055 94.8087 182.377 94.9108C182.702 95.0091 182.982 95.1565 183.216 95.3531C183.454 95.5458 183.639 95.7878 183.772 96.0788C183.904 96.3699 183.97 96.7044 183.97 97.0824C183.97 97.2979 183.93 97.5115 183.851 97.7232C183.775 97.9311 183.668 98.1258 183.528 98.3072C183.392 98.4849 183.229 98.6436 183.04 98.7835C182.851 98.9234 182.645 99.0311 182.422 99.1067C182.517 99.1483 182.611 99.2088 182.706 99.2881C182.804 99.3637 182.895 99.4582 182.978 99.5716C183.065 99.6813 183.142 99.8079 183.21 99.9515C183.282 100.091 183.339 100.243 183.38 100.405L183.857 102.276H184.599L184.611 103.354H182.938L182.297 100.74C182.18 100.271 182.001 99.927 181.759 99.7077C181.52 99.4847 181.194 99.3732 180.778 99.3732H179.672V102.378H180.534V103.354H177.744V102.378H178.561V95.7386H177.744V94.7577ZM179.672 95.7386V98.4433H181.322C181.538 98.4433 181.734 98.4149 181.912 98.3582C182.093 98.3015 182.248 98.2165 182.377 98.1031C182.509 97.9897 182.611 97.8498 182.683 97.6835C182.758 97.5134 182.796 97.3168 182.796 97.0938C182.796 96.6666 182.668 96.334 182.411 96.0958C182.154 95.8577 181.745 95.7386 181.186 95.7386H179.672ZM191.788 94.7577H195.264C195.65 94.7577 196.003 94.8087 196.325 94.9108C196.65 95.0091 196.929 95.1565 197.164 95.3531C197.402 95.5458 197.585 95.7878 197.714 96.0788C197.846 96.3699 197.912 96.7044 197.912 97.0824C197.912 97.3962 197.848 97.6929 197.719 97.9727C197.591 98.2486 197.409 98.4905 197.175 98.6984C196.941 98.9063 196.659 99.0708 196.33 99.1917C196.005 99.3127 195.642 99.3732 195.242 99.3732H193.716V102.378H194.578V103.354H191.788V102.378H192.605V95.7386H191.788V94.7577ZM193.716 95.7386V98.4433H195.264C195.48 98.4433 195.676 98.4149 195.854 98.3582C196.035 98.2978 196.19 98.2108 196.319 98.0974C196.451 97.984 196.553 97.8422 196.625 97.6721C196.701 97.502 196.739 97.3055 196.739 97.0824C196.739 96.6591 196.61 96.3302 196.353 96.0958C196.096 95.8577 195.686 95.7386 195.123 95.7386H193.716ZM199.233 94.7577H202.811C203.193 94.7577 203.544 94.8087 203.866 94.9108C204.191 95.0091 204.47 95.1565 204.705 95.3531C204.943 95.5458 205.128 95.7878 205.261 96.0788C205.393 96.3699 205.459 96.7044 205.459 97.0824C205.459 97.2979 205.419 97.5115 205.34 97.7232C205.264 97.9311 205.157 98.1258 205.017 98.3072C204.881 98.4849 204.718 98.6436 204.529 98.7835C204.34 98.9234 204.134 99.0311 203.911 99.1067C204.006 99.1483 204.1 99.2088 204.195 99.2881C204.293 99.3637 204.384 99.4582 204.467 99.5716C204.554 99.6813 204.631 99.8079 204.699 99.9515C204.771 100.091 204.828 100.243 204.869 100.405L205.346 102.276H206.088L206.1 103.354H204.427L203.786 100.74C203.669 100.271 203.49 99.927 203.248 99.7077C203.009 99.4847 202.682 99.3732 202.267 99.3732H201.161V102.378H202.023V103.354H199.233V102.378H200.05V95.7386H199.233V94.7577ZM201.161 95.7386V98.4433H202.811C203.026 98.4433 203.223 98.4149 203.401 98.3582C203.582 98.3015 203.737 98.2165 203.866 98.1031C203.998 97.9897 204.1 97.8498 204.172 97.6835C204.247 97.5134 204.285 97.3168 204.285 97.0938C204.285 96.6666 204.157 96.334 203.9 96.0958C203.643 95.8577 203.234 95.7386 202.675 95.7386H201.161ZM211.452 103.524C210.859 103.524 210.316 103.414 209.825 103.195C209.333 102.972 208.895 102.656 208.509 102.248C208.124 101.84 207.831 101.356 207.63 100.796C207.43 100.237 207.33 99.6567 207.33 99.0557C207.33 98.4357 207.43 97.8536 207.63 97.3093C207.835 96.7649 208.118 96.2924 208.481 95.8917C208.848 95.4872 209.282 95.1697 209.785 94.9391C210.292 94.7048 210.847 94.5876 211.452 94.5876C212.061 94.5876 212.618 94.7048 213.125 94.9391C213.631 95.1697 214.066 95.4872 214.429 95.8917C214.792 96.2924 215.073 96.7649 215.274 97.3093C215.474 97.8536 215.574 98.4357 215.574 99.0557C215.574 99.6756 215.472 100.258 215.268 100.802C215.068 101.343 214.784 101.815 214.418 102.22C214.055 102.624 213.62 102.943 213.113 103.178C212.611 103.408 212.057 103.524 211.452 103.524ZM211.452 102.469C211.902 102.469 212.308 102.376 212.671 102.191C213.038 102.006 213.35 101.758 213.607 101.448C213.864 101.135 214.062 100.772 214.202 100.36C214.342 99.9478 214.412 99.5131 214.412 99.0557C214.412 98.5869 214.334 98.1352 214.179 97.7005C214.028 97.262 213.815 96.8916 213.539 96.5891C213.267 96.2867 212.949 96.0543 212.586 95.8917C212.223 95.7254 211.845 95.6422 211.452 95.6422C211.002 95.6422 210.594 95.7348 210.227 95.9201C209.861 96.1053 209.549 96.3548 209.292 96.6685C209.035 96.9785 208.836 97.3414 208.696 97.7572C208.557 98.1692 208.487 98.602 208.487 99.0557C208.487 99.5849 208.564 100.057 208.719 100.473C208.874 100.885 209.078 101.229 209.331 101.505C209.589 101.777 209.893 102.006 210.244 102.191C210.6 102.376 211.002 102.469 211.452 102.469ZM217.026 94.7577H223.183V97.1902H222.021V95.7386H218.953V98.5H221.908V99.4526H218.953V102.378H219.815V103.354H217.026V102.378H217.842V95.7386H217.026V94.7577ZM224.312 94.7577H230.469V97.1902H229.307V95.7386H226.239V98.4886H228.819V99.4639H226.239V102.378H229.307V100.927H230.469V103.354H224.312V102.378H225.128V95.7386H224.312V94.7577ZM236.241 97.0938C236.241 96.7611 236.181 96.5117 236.06 96.3453C235.939 96.179 235.805 96.0524 235.657 95.9654C235.514 95.8747 235.355 95.8067 235.181 95.7613C235.007 95.7122 234.833 95.6876 234.659 95.6876C234.372 95.6876 234.121 95.7216 233.905 95.7897C233.69 95.8539 233.51 95.9427 233.367 96.0561C233.227 96.1696 233.121 96.3019 233.049 96.4531C232.977 96.6043 232.941 96.763 232.941 96.9294C232.941 97.1788 232.985 97.3811 233.072 97.5361C233.162 97.6873 233.276 97.8101 233.412 97.9046C233.548 97.9953 233.697 98.0672 233.86 98.1201C234.026 98.173 234.185 98.2259 234.336 98.2788L235.482 98.6531C235.826 98.7627 236.128 98.8874 236.389 99.0273C236.653 99.1672 236.875 99.3335 237.052 99.5263C237.23 99.7153 237.364 99.9345 237.455 100.184C237.549 100.434 237.597 100.723 237.597 101.052C237.597 101.407 237.523 101.736 237.375 102.038C237.232 102.341 237.029 102.603 236.769 102.826C236.508 103.049 236.196 103.225 235.833 103.354C235.474 103.478 235.079 103.541 234.648 103.541C234.206 103.541 233.828 103.49 233.514 103.388C233.2 103.289 232.936 103.157 232.72 102.991C232.508 102.821 232.338 102.628 232.21 102.412C232.081 102.197 231.981 101.976 231.909 101.749H231.478V100.774H232.907C232.907 101.193 232.951 101.49 233.038 101.664C233.128 101.838 233.253 101.983 233.412 102.101C233.571 102.214 233.76 102.301 233.979 102.361C234.198 102.418 234.44 102.446 234.705 102.446C234.962 102.446 235.192 102.416 235.396 102.356C235.604 102.295 235.78 102.208 235.924 102.095C236.071 101.978 236.183 101.838 236.258 101.675C236.338 101.509 236.377 101.322 236.377 101.114C236.377 100.883 236.328 100.689 236.23 100.53C236.135 100.367 236.013 100.229 235.861 100.116C235.71 100.003 235.544 99.91 235.362 99.8381C235.185 99.7663 235.013 99.7039 234.846 99.651L233.605 99.2995C233.333 99.2163 233.083 99.1105 232.856 98.9819C232.633 98.8534 232.44 98.6966 232.278 98.5113C232.119 98.3261 231.996 98.1106 231.909 97.8649C231.822 97.6154 231.779 97.3282 231.779 97.0031C231.779 96.6742 231.843 96.3661 231.972 96.0788C232.1 95.7915 232.289 95.5402 232.539 95.3247C232.788 95.1092 233.093 94.941 233.452 94.8201C233.815 94.6953 234.228 94.6329 234.693 94.6329C235 94.6329 235.281 94.6689 235.538 94.7407C235.799 94.8125 236.033 94.9146 236.241 95.0469C236.453 95.1754 236.638 95.3323 236.797 95.5175C236.96 95.6989 237.096 95.8993 237.205 96.1185H237.631V97.0938H236.241ZM243.334 97.0938C243.334 96.7611 243.274 96.5117 243.153 96.3453C243.032 96.179 242.898 96.0524 242.75 95.9654C242.607 95.8747 242.448 95.8067 242.274 95.7613C242.1 95.7122 241.926 95.6876 241.752 95.6876C241.465 95.6876 241.214 95.7216 240.998 95.7897C240.783 95.8539 240.603 95.9427 240.46 96.0561C240.32 96.1696 240.214 96.3019 240.142 96.4531C240.07 96.6043 240.034 96.763 240.034 96.9294C240.034 97.1788 240.078 97.3811 240.165 97.5361C240.256 97.6873 240.369 97.8101 240.505 97.9046C240.641 97.9953 240.79 98.0672 240.953 98.1201C241.119 98.173 241.278 98.2259 241.429 98.2788L242.575 98.6531C242.919 98.7627 243.221 98.8874 243.482 99.0273C243.747 99.1672 243.968 99.3335 244.145 99.5263C244.323 99.7153 244.457 99.9345 244.548 100.184C244.642 100.434 244.69 100.723 244.69 101.052C244.69 101.407 244.616 101.736 244.469 102.038C244.325 102.341 244.123 102.603 243.862 102.826C243.601 103.049 243.289 103.225 242.926 103.354C242.567 103.478 242.172 103.541 241.741 103.541C241.299 103.541 240.921 103.49 240.607 103.388C240.293 103.289 240.029 103.157 239.813 102.991C239.602 102.821 239.432 102.628 239.303 102.412C239.174 102.197 239.074 101.976 239.002 101.749H238.572V100.774H240C240 101.193 240.044 101.49 240.131 101.664C240.222 101.838 240.346 101.983 240.505 102.101C240.664 102.214 240.853 102.301 241.072 102.361C241.291 102.418 241.533 102.446 241.798 102.446C242.055 102.446 242.285 102.416 242.49 102.356C242.698 102.295 242.873 102.208 243.017 102.095C243.164 101.978 243.276 101.838 243.351 101.675C243.431 101.509 243.471 101.322 243.471 101.114C243.471 100.883 243.421 100.689 243.323 100.53C243.229 100.367 243.106 100.229 242.955 100.116C242.803 100.003 242.637 99.91 242.456 99.8381C242.278 99.7663 242.106 99.7039 241.94 99.651L240.698 99.2995C240.426 99.2163 240.176 99.1105 239.949 98.9819C239.726 98.8534 239.534 98.6966 239.371 98.5113C239.212 98.3261 239.089 98.1106 239.002 97.8649C238.916 97.6154 238.872 97.3282 238.872 97.0031C238.872 96.6742 238.936 96.3661 239.065 96.0788C239.193 95.7915 239.382 95.5402 239.632 95.3247C239.881 95.1092 240.186 94.941 240.545 94.8201C240.908 94.6953 241.322 94.6329 241.787 94.6329C242.093 94.6329 242.374 94.6689 242.631 94.7407C242.892 94.8125 243.127 94.9146 243.334 95.0469C243.546 95.1754 243.731 95.3323 243.89 95.5175C244.053 95.6989 244.189 95.8993 244.298 96.1185H244.724V97.0938H243.334ZM246.022 94.7577H248.766V95.7386H247.95V102.378H248.766V103.354H246.022V102.378H246.838V95.7386H246.022V94.7577ZM254.34 103.524C253.746 103.524 253.204 103.414 252.712 103.195C252.221 102.972 251.783 102.656 251.397 102.248C251.011 101.84 250.718 101.356 250.518 100.796C250.318 100.237 250.218 99.6567 250.218 99.0557C250.218 98.4357 250.318 97.8536 250.518 97.3093C250.722 96.7649 251.006 96.2924 251.369 95.8917C251.735 95.4872 252.17 95.1697 252.673 94.9391C253.179 94.7048 253.735 94.5876 254.34 94.5876C254.948 94.5876 255.506 94.7048 256.012 94.9391C256.519 95.1697 256.954 95.4872 257.317 95.8917C257.68 96.2924 257.961 96.7649 258.161 97.3093C258.362 97.8536 258.462 98.4357 258.462 99.0557C258.462 99.6756 258.36 100.258 258.156 100.802C257.955 101.343 257.672 101.815 257.305 102.22C256.942 102.624 256.508 102.943 256.001 103.178C255.498 103.408 254.945 103.524 254.34 103.524ZM254.34 102.469C254.79 102.469 255.196 102.376 255.559 102.191C255.926 102.006 256.237 101.758 256.494 101.448C256.751 101.135 256.95 100.772 257.09 100.36C257.23 99.9478 257.3 99.5131 257.3 99.0557C257.3 98.5869 257.222 98.1352 257.067 97.7005C256.916 97.262 256.702 96.8916 256.426 96.5891C256.154 96.2867 255.837 96.0543 255.474 95.8917C255.111 95.7254 254.733 95.6422 254.34 95.6422C253.89 95.6422 253.482 95.7348 253.115 95.9201C252.748 96.1053 252.437 96.3548 252.179 96.6685C251.922 96.9785 251.724 97.3414 251.584 97.7572C251.444 98.1692 251.374 98.602 251.374 99.0557C251.374 99.5849 251.452 100.057 251.607 100.473C251.762 100.885 251.966 101.229 252.219 101.505C252.476 101.777 252.781 102.006 253.132 102.191C253.487 102.376 253.89 102.469 254.34 102.469ZM265.232 94.7577H268.022V95.7386H267.29V103.354H265.839L261.841 96.2263V102.378H262.726V103.354H259.936V102.378H260.73V95.7386H259.913V94.7463H262.227L266.15 101.806L266.196 101.534V95.7386H265.232V94.7577ZM274.44 102.378H275.154L274.474 100.428H271.168L270.505 102.378H271.389V103.354H268.6V102.378H269.348L272.025 94.7577H273.697L276.368 102.378H277.23V103.354H274.44V102.378ZM271.492 99.4866H274.145L272.807 95.6422L271.492 99.4866ZM278.33 94.7577H281.119V95.7386H280.257V102.378H283.223C283.283 102.378 283.344 102.365 283.404 102.339C283.465 102.308 283.52 102.271 283.569 102.225C283.618 102.18 283.658 102.129 283.688 102.072C283.718 102.012 283.733 101.951 283.733 101.891V100.808H284.811V103.354H278.33V102.378H279.146V95.7386H278.33V94.7577Z" fill="#8B7AC7"/>
</g>
<defs>
<filter id="filter0_di_14_739" x="0.673913" y="0.173913" width="115.652" height="115.652" filterUnits="userSpaceOnUse" color-interpolation-filters="sRGB">
<feFlood flood-opacity="0" result="BackgroundImageFix"/>
<feColorMatrix in="SourceAlpha" type="matrix" values="0 0 0 0 0 0 0 0 0 0 0 0 0 0 0 0 0 0 127 0" result="hardAlpha"/>
<feOffset/>
<feGaussianBlur stdDeviation="5.16304"/>
<feComposite in2="hardAlpha" operator="out"/>
<feColorMatrix type="matrix" values="0 0 0 0 1 0 0 0 0 1 0 0 0 0 1 0 0 0 0.25 0"/>
<feBlend mode="normal" in2="BackgroundImageFix" result="effect1_dropShadow_14_739"/>
<feBlend mode="normal" in="SourceGraphic" in2="effect1_dropShadow_14_739" result="shape"/>
<feColorMatrix in="SourceAlpha" type="matrix" values="0 0 0 0 0 0 0 0 0 0 0 0 0 0 0 0 0 0 127 0" result="hardAlpha"/>
<feOffset/>
<feGaussianBlur stdDeviation="5.16304"/>
<feComposite in2="hardAlpha" operator="arithmetic" k2="-1" k3="1"/>
<feColorMatrix type="matrix" values="0 0 0 0 1 0 0 0 0 1 0 0 0 0 1 0 0 0 0.35 0"/>
<feBlend mode="normal" in2="shape" result="effect2_innerShadow_14_739"/>
</filter>
<filter id="filter1_d_14_739" x="119.315" y="15.4537" width="167.664" height="44.8164" filterUnits="userSpaceOnUse" color-interpolation-filters="sRGB">
<feFlood flood-opacity="0" result="BackgroundImageFix"/>
<feColorMatrix in="SourceAlpha" type="matrix" values="0 0 0 0 0 0 0 0 0 0 0 0 0 0 0 0 0 0 127 0" result="hardAlpha"/>
<feOffset/>
<feGaussianBlur stdDeviation="1.95154"/>
<feComposite in2="hardAlpha" operator="out"/>
<feColorMatrix type="matrix" values="0 0 0 0 0.677438 0 0 0 0 0.571012 0 0 0 0 0.5397 0 0 0 0.25 0"/>
<feBlend mode="normal" in2="BackgroundImageFix" result="effect1_dropShadow_14_739"/>
<feBlend mode="normal" in="SourceGraphic" in2="effect1_dropShadow_14_739" result="shape"/>
</filter>
<filter id="filter2_d_14_739" x="118.009" y="71.6845" width="170.705" height="35.7593" filterUnits="userSpaceOnUse" color-interpolation-filters="sRGB">
<feFlood flood-opacity="0" result="BackgroundImageFix"/>
<feColorMatrix in="SourceAlpha" type="matrix" values="0 0 0 0 0 0 0 0 0 0 0 0 0 0 0 0 0 0 127 0" result="hardAlpha"/>
<feOffset/>
<feGaussianBlur stdDeviation="1.95154"/>
<feComposite in2="hardAlpha" operator="out"/>
<feColorMatrix type="matrix" values="0 0 0 0 0.677438 0 0 0 0 0.571012 0 0 0 0 0.5397 0 0 0 0.25 0"/>
<feBlend mode="normal" in2="BackgroundImageFix" result="effect1_dropShadow_14_739"/>
<feBlend mode="normal" in="SourceGraphic" in2="effect1_dropShadow_14_739" result="shape"/>
</filter>
</defs>
</svg>
