<svg width="1512" height="982" viewBox="0 0 1512 982" fill="none" xmlns="http://www.w3.org/2000/svg">
<g clip-path="url(#clip0_28_1053)">
<rect width="1512" height="982" fill="#1B1B1D"/>
<g opacity="0.7">
<rect width="1000" height="600" transform="translate(1512 -9) rotate(90)" fill="#1B1B1D"/>
<rect opacity="0.1" x="1512" y="-9" width="100" height="100" transform="rotate(90 1512 -9)" fill="#22202B"/>
<rect x="1412" y="-9" width="100" height="100" transform="rotate(90 1412 -9)" fill="#22202B"/>
<rect opacity="0.2" x="1312" y="-9" width="100" height="100" transform="rotate(90 1312 -9)" fill="#22202B"/>
<rect x="1212" y="-9" width="100" height="100" transform="rotate(90 1212 -9)" fill="#1B1B1D"/>
<rect opacity="0.6" x="1112" y="-9" width="100" height="100" transform="rotate(90 1112 -9)" fill="#1B1B1D"/>
<rect opacity="0.1" x="1012" y="-9" width="100" height="100" transform="rotate(90 1012 -9)" fill="#22202B"/>
<rect opacity="0.1" x="912" y="191" width="100" height="100" transform="rotate(-90 912 191)" fill="#22202B"/>
<rect opacity="0.2" x="1012" y="191" width="100" height="100" transform="rotate(-90 1012 191)" fill="#22202B"/>
<rect x="1112" y="191" width="100" height="100" transform="rotate(-90 1112 191)" fill="#1B1B1D"/>
<rect x="1212" y="191" width="100" height="100" transform="rotate(-90 1212 191)" fill="#22202B"/>
<rect opacity="0.6" x="1312" y="191" width="100" height="100" transform="rotate(-90 1312 191)" fill="#1B1B1D"/>
<rect opacity="0.1" x="1412" y="191" width="100" height="100" transform="rotate(-90 1412 191)" fill="#22202B"/>
<rect x="1512" y="191" width="100" height="100" transform="rotate(90 1512 191)" fill="#22202B"/>
<rect opacity="0.1" x="1412" y="191" width="100" height="100" transform="rotate(90 1412 191)" fill="#22202B"/>
<rect opacity="0.2" x="1312" y="191" width="100" height="100" transform="rotate(90 1312 191)" fill="#22202B"/>
<rect x="1212" y="191" width="100" height="100" transform="rotate(90 1212 191)" fill="#1B1B1D"/>
<rect opacity="0.6" x="1112" y="191" width="100" height="100" transform="rotate(90 1112 191)" fill="#22202B"/>
<rect opacity="0.1" x="1012" y="191" width="100" height="100" transform="rotate(90 1012 191)" fill="#22202B"/>
<rect x="1512" y="291" width="100" height="100" transform="rotate(90 1512 291)" fill="#1B1B1D"/>
<rect x="1411.25" y="291.75" width="98.5" height="98.5" transform="rotate(90 1411.25 291.75)" stroke="#22202B" stroke-width="1.5"/>
<rect x="1312" y="291" width="100" height="100" transform="rotate(90 1312 291)" fill="#1B1B1D"/>
<rect x="1211.25" y="291.75" width="98.5" height="98.5" transform="rotate(90 1211.25 291.75)" stroke="#22202B" stroke-width="1.5"/>
<rect x="1112" y="291" width="100" height="100" transform="rotate(90 1112 291)" fill="#1B1B1D"/>
<rect x="1012" y="291" width="100" height="100" transform="rotate(90 1012 291)" fill="#1B1B1D"/>
<rect x="1512" y="391" width="100" height="100" transform="rotate(90 1512 391)" fill="#1D1C21"/>
<rect x="1412" y="391" width="100" height="100" transform="rotate(90 1412 391)" fill="#1D1C21"/>
<rect x="1312" y="391" width="100" height="100" transform="rotate(90 1312 391)" fill="#1F1E25"/>
<rect opacity="0.3" x="1212" y="391" width="100" height="100" transform="rotate(90 1212 391)" fill="#1C1C20"/>
<rect opacity="0.8" x="1112" y="391" width="100" height="100" transform="rotate(90 1112 391)" fill="#22202B"/>
<rect x="1011.25" y="391.75" width="98.5" height="98.5" transform="rotate(90 1011.25 391.75)" stroke="#22202B" stroke-width="1.5"/>
<rect x="1511.25" y="491.75" width="98.5" height="98.5" transform="rotate(90 1511.25 491.75)" stroke="#22202B" stroke-width="1.5"/>
<rect x="1412" y="491" width="100" height="100" transform="rotate(90 1412 491)" fill="#1B1B1D"/>
<rect x="1311.25" y="491.75" width="98.5" height="98.5" transform="rotate(90 1311.25 491.75)" stroke="#22202B" stroke-width="1.5"/>
<rect x="1212" y="491" width="100" height="100" transform="rotate(90 1212 491)" fill="#1B1B1D"/>
<rect x="1111.25" y="491.75" width="98.5" height="98.5" transform="rotate(90 1111.25 491.75)" stroke="#22202B" stroke-width="1.5"/>
<rect x="1012" y="491" width="100" height="100" transform="rotate(90 1012 491)" fill="#1B1B1D"/>
<rect x="1512" y="591" width="100" height="100" transform="rotate(90 1512 591)" fill="#22202B"/>
<rect x="1411.25" y="591.75" width="98.5" height="98.5" transform="rotate(90 1411.25 591.75)" stroke="#22202B" stroke-width="1.5"/>
<rect x="1312" y="591" width="100" height="100" transform="rotate(90 1312 591)" fill="#1B1B1D"/>
<rect x="1212" y="591" width="100" height="100" transform="rotate(90 1212 591)" fill="#22202B"/>
<rect x="1112" y="591" width="100" height="100" transform="rotate(90 1112 591)" fill="#1B1B1D"/>
<rect opacity="0.8" x="1012" y="591" width="100" height="100" transform="rotate(90 1012 591)" fill="#22202B"/>
<rect x="912" y="791" width="100" height="100" transform="rotate(-90 912 791)" fill="#1D1C21"/>
<rect x="1012" y="791" width="100" height="100" transform="rotate(-90 1012 791)" fill="#1D1C21"/>
<rect x="1112" y="791" width="100" height="100" transform="rotate(-90 1112 791)" fill="#1F1E25"/>
<rect opacity="0.3" x="1212" y="791" width="100" height="100" transform="rotate(-90 1212 791)" fill="#1C1C20"/>
<rect opacity="0.8" x="1312" y="791" width="100" height="100" transform="rotate(-90 1312 791)" fill="#22202B"/>
<rect x="1412.75" y="790.25" width="98.5" height="98.5" transform="rotate(-90 1412.75 790.25)" stroke="#22202B" stroke-width="1.5"/>
<rect opacity="0.1" x="912" y="891" width="100" height="100" transform="rotate(-90 912 891)" fill="#22202B"/>
<rect x="1012" y="891" width="100" height="100" transform="rotate(-90 1012 891)" fill="#22202B"/>
<rect x="1112" y="891" width="100" height="100" transform="rotate(-90 1112 891)" fill="#1B1B1D"/>
<rect opacity="0.2" x="1212" y="891" width="100" height="100" transform="rotate(-90 1212 891)" fill="#22202B"/>
<rect opacity="0.6" x="1312" y="891" width="100" height="100" transform="rotate(-90 1312 891)" fill="#22202B"/>
<rect opacity="0.1" x="1412" y="891" width="100" height="100" transform="rotate(-90 1412 891)" fill="#22202B"/>
<rect opacity="0.1" x="912" y="991" width="100" height="100" transform="rotate(-90 912 991)" fill="#22202B"/>
<rect opacity="0.2" x="1012" y="991" width="100" height="100" transform="rotate(-90 1012 991)" fill="#22202B"/>
<rect x="1112" y="991" width="100" height="100" transform="rotate(-90 1112 991)" fill="#22202B"/>
<rect x="1212" y="991" width="100" height="100" transform="rotate(-90 1212 991)" fill="#1B1B1D"/>
<rect opacity="0.6" x="1312" y="991" width="100" height="100" transform="rotate(-90 1312 991)" fill="#1B1B1D"/>
<rect opacity="0.1" x="1412" y="991" width="100" height="100" transform="rotate(-90 1412 991)" fill="#22202B"/>
</g>
<ellipse opacity="0.1" cx="1212" cy="491" rx="350" ry="300" transform="rotate(90 1212 491)" fill="url(#paint0_radial_28_1053)" fill-opacity="0.25"/>
<path d="M281 1158L281 777C281 757.118 264.882 741 245 741L-136 741" stroke="url(#paint1_linear_28_1053)" stroke-width="3"/>
<g opacity="0.1" filter="url(#filter0_f_28_1053)">
<path d="M1593 342C1593 393.915 1551.14 436 1499.5 436C1447.86 436 1406 393.915 1406 342C1406 290.085 1447.86 248 1499.5 248C1551.14 248 1593 290.085 1593 342Z" fill="#8278A8"/>
</g>
<g opacity="0.1" filter="url(#filter1_f_28_1053)">
<path d="M93 617C93 668.915 51.1386 711 -0.499998 711C-52.1386 711 -94 668.915 -94 617C-94 565.085 -52.1386 523 -0.499998 523C51.1386 523 93 565.085 93 617Z" fill="#A59DC3"/>
</g>
<path d="M1548.5 253H1304.5C1284.62 253 1268.5 236.882 1268.5 217V119C1268.5 99.1177 1252.38 83 1232.5 83H1005C985.118 83 969 66.8822 969 47V-114" stroke="url(#paint2_linear_28_1053)" stroke-width="3"/>
<path d="M1259 1266L1259 879C1259 859.118 1275.12 843 1295 843L1682 843" stroke="url(#paint3_linear_28_1053)" stroke-width="3"/>
</g>
<defs>
<filter id="filter0_f_28_1053" x="1209.18" y="51.1812" width="580.638" height="581.638" filterUnits="userSpaceOnUse" color-interpolation-filters="sRGB">
<feFlood flood-opacity="0" result="BackgroundImageFix"/>
<feBlend mode="normal" in="SourceGraphic" in2="BackgroundImageFix" result="shape"/>
<feGaussianBlur stdDeviation="98.4094" result="effect1_foregroundBlur_28_1053"/>
</filter>
<filter id="filter1_f_28_1053" x="-290.819" y="326.181" width="580.638" height="581.638" filterUnits="userSpaceOnUse" color-interpolation-filters="sRGB">
<feFlood flood-opacity="0" result="BackgroundImageFix"/>
<feBlend mode="normal" in="SourceGraphic" in2="BackgroundImageFix" result="shape"/>
<feGaussianBlur stdDeviation="98.4094" result="effect1_foregroundBlur_28_1053"/>
</filter>
<radialGradient id="paint0_radial_28_1053" cx="0" cy="0" r="1" gradientUnits="userSpaceOnUse" gradientTransform="translate(1212 491) rotate(90) scale(279.215 337.443)">
<stop stop-color="white"/>
<stop offset="1" stop-color="#1B1B1D"/>
</radialGradient>
<linearGradient id="paint1_linear_28_1053" x1="-73.1728" y1="740.453" x2="238.332" y2="1101.59" gradientUnits="userSpaceOnUse">
<stop stop-color="#505050" stop-opacity="0.01"/>
<stop offset="1" stop-color="white" stop-opacity="0.75"/>
</linearGradient>
<linearGradient id="paint2_linear_28_1053" x1="969.5" y1="-86" x2="1580.03" y2="180.866" gradientUnits="userSpaceOnUse">
<stop stop-color="#656565" stop-opacity="0.01"/>
<stop offset="1" stop-color="white" stop-opacity="0.75"/>
</linearGradient>
<linearGradient id="paint3_linear_28_1053" x1="1618.27" y1="842.446" x2="1302.28" y2="1208.78" gradientUnits="userSpaceOnUse">
<stop stop-color="#505050" stop-opacity="0.01"/>
<stop offset="1" stop-color="white" stop-opacity="0.75"/>
</linearGradient>
<clipPath id="clip0_28_1053">
<rect width="1512" height="982" fill="white"/>
</clipPath>
</defs>
</svg>
