<svg width="139" height="44" viewBox="0 0 139 44" fill="white" xmlns="http://www.w3.org/2000/svg">
<mask id="mask0_82_3" style="mask-type:luminance" maskUnits="userSpaceOnUse" x="2" y="-1" width="40" height="33">
<path d="M2.29712 -0.000823975H41.9138V31.7707H2.29712V-0.000823975Z" fill="white"/>
</mask>
<g mask="url(#mask0_82_3)">
<path d="M22.2752 2.68385C32.4471 2.68385 40.7104 11.068 40.7104 21.4123C40.7104 25.0765 39.6664 28.5847 37.7357 31.6273C40.2781 28.1971 41.6758 24.0453 41.6758 19.7106C41.6758 8.82263 32.9801 0.00209477 22.2752 0.00209477C11.5456 -0.00034303 2.84755 8.82263 2.84755 19.7106C2.84755 24.0428 4.24769 28.1971 6.79006 31.6273C4.85688 28.5847 3.81537 25.0741 3.81537 21.4123C3.81537 11.068 12.0787 2.68385 22.2752 2.68385Z" fill="#FFFFFF"/>
</g>
<path d="M11.1622 26.3125L13.68 24.9448V23.0627L11.1622 21.695V26.3125Z" fill="#FFFFFF"/>
<path d="M13.7046 35.6255L17.1902 33.7434V26.8293L13.7046 28.7139V35.6255Z" fill="#FFFFFF"/>
<mask id="mask1_82_3" style="mask-type:luminance" maskUnits="userSpaceOnUse" x="0" y="3" width="13" height="38">
<path d="M0.000198364 3.0615H12.3583V40.5086H0.000198364V3.0615Z" fill="white"/>
</mask>
<g mask="url(#mask1_82_3)">
<path d="M9.30748 18.3938V36.0642C4.57646 32.2195 1.52562 26.2879 1.52562 19.6591C1.52562 12.9767 4.57646 7.04269 9.3566 3.20046C3.68725 7.27429 0.000198364 14.0079 0.000198364 21.5924C0.000198364 29.1501 3.66268 35.8594 9.30748 39.96C9.48434 40.0892 9.68822 40.2184 9.86508 40.3477V20.8196L11.8228 19.7615L9.30748 18.3938Z" fill="#FFFFFF"/>
</g>
<mask id="mask2_82_3" style="mask-type:luminance" maskUnits="userSpaceOnUse" x="21" y="3" width="24" height="41">
<path d="M21.7909 3.0615H44.3332V43.9997H21.7909V3.0615Z" fill="white"/>
</mask>
<g mask="url(#mask2_82_3)">
<path d="M35.1664 3.19849C39.9466 7.04315 42.9999 12.9771 42.9999 19.6572C42.9999 26.286 39.9736 32.22 35.218 36.0646V22.573L37.9397 21.0517L35.218 19.5816L34.658 19.272V24.2259L32.7002 23.1678V27.4757L30.0056 26.03V21.6953L27.4878 20.3276V24.6623L24.7931 23.2166V18.8843L22.8353 17.7994V14.3936L24.7931 13.9572L27.4878 13.3892L28.7602 13.1039L27.4878 12.8211L24.7931 12.2287L22.2753 11.6875V44.1903C27.107 44.1903 31.5826 42.6179 35.218 39.9605C40.8628 35.8598 44.5253 29.1506 44.5253 21.5929C44.5253 14.0084 40.8383 7.27476 35.1664 3.19849Z" fill="#FFFFFF"/>
</g>
<path d="M17.8239 23.9917L20.3688 22.624V20.6395L17.8239 19.2718V23.9917Z" fill="#FFFFFF"/>
<path d="M17.8239 40.9402L20.3688 39.5725V37.6904L17.8239 36.3227V40.9402Z" fill="#FFFFFF"/>
<path d="M63.9051 23.8589C62.4951 23.8589 61.176 23.598 59.9453 23.0787C58.7122 22.5521 57.6363 21.8256 56.7127 20.8943C55.7891 19.9655 55.062 18.8952 54.5314 17.686C54.0058 16.4767 53.7454 15.1749 53.7454 13.7755C53.7454 12.3785 54.0058 11.0742 54.5314 9.865C55.062 8.65577 55.7891 7.59038 56.7127 6.6664C57.6363 5.73753 58.7122 5.00858 59.9453 4.48198C61.176 3.95538 62.4951 3.69209 63.9051 3.69209C65.8628 3.69209 67.6486 4.20406 69.26 5.22312C70.8763 6.23732 72.102 7.56113 72.9348 9.19212L68.582 11.3863C68.1694 10.5354 67.5503 9.86013 66.725 9.35791C65.8996 8.85812 64.9588 8.60701 63.9051 8.60701C62.9151 8.60701 62.0235 8.83131 61.2325 9.27989C60.4391 9.7236 59.8102 10.3331 59.346 11.1132C58.8866 11.8885 58.6582 12.7759 58.6582 13.7755C58.6582 14.758 58.8866 15.643 59.346 16.428C59.8102 17.2155 60.4391 17.8323 61.2325 18.2808C62.0235 18.7245 62.9151 18.944 63.9051 18.944C64.9588 18.944 65.8996 18.6953 66.725 18.1931C67.5503 17.6933 68.1694 17.018 68.582 16.1647L72.9348 18.3589C72.102 19.9972 70.8763 21.3234 69.26 22.3376C67.6486 23.3518 65.8628 23.8589 63.9051 23.8589Z" fill="#FFFFFF"/>
<path d="M87.7228 23.8589C86.5167 23.8589 85.404 23.6565 84.3821 23.2543C83.3603 22.852 82.4612 22.3059 81.6899 21.616C80.9235 20.9285 80.3193 20.1703 79.882 19.3438L83.9989 16.7888C84.3527 17.5299 84.8562 18.1151 85.5121 18.5441C86.1728 18.9683 86.9319 19.178 87.7916 19.178C88.4254 19.178 88.9068 19.0561 89.236 18.8074C89.57 18.5539 89.7371 18.2296 89.7371 17.8323C89.7371 17.3325 89.5209 16.9424 89.0886 16.662C88.6612 16.3768 88.1011 16.1257 87.4084 15.9111C86.7206 15.6917 85.996 15.4504 85.237 15.1895C84.4755 14.9238 83.7484 14.58 83.0557 14.1558C82.3679 13.7267 81.8078 13.1587 81.3755 12.4492C80.9481 11.7422 80.7368 10.8207 80.7368 9.68947C80.7368 8.29252 81.0635 7.15155 81.7194 6.26657C82.3802 5.38403 83.2227 4.73309 84.2446 4.3162C85.2664 3.90175 86.2932 3.69209 87.3298 3.69209C88.5605 3.69209 89.7371 3.95538 90.8572 4.48198C91.9773 5.00858 92.923 5.71803 93.6968 6.60789L90.3954 9.78699C89.3195 8.6509 88.2755 8.08041 87.261 8.08041C86.868 8.08041 86.5266 8.18281 86.2392 8.38272C85.9567 8.57776 85.8167 8.89469 85.8167 9.32865C85.8167 9.83087 86.0279 10.2161 86.4553 10.4891C86.8877 10.7622 87.4428 11.0035 88.1257 11.2108C88.8061 11.4204 89.5307 11.6593 90.2971 11.9324C91.0684 12.2006 91.7955 12.5638 92.4784 13.0246C93.1588 13.4805 93.7115 14.0973 94.1389 14.8774C94.5713 15.6527 94.7874 16.6596 94.7874 17.9005C94.7874 19.1683 94.4632 20.2458 93.8147 21.1284C93.1662 22.0134 92.3065 22.6887 91.2404 23.1568C90.1719 23.6248 89.0002 23.8589 87.7228 23.8589Z" fill="#FFFFFF"/>
<path d="M115.476 8.31378H108.254V11.6197H114.356V15.9397H108.254V19.2456H115.476V23.5949H103.204V3.95471H115.476V8.31378Z" fill="#FFFFFF"/>
<path d="M132.939 3.95449C134.079 3.95449 135.103 4.22755 136.014 4.77365C136.931 5.31975 137.658 6.05114 138.196 6.96781C138.731 7.88449 139.001 8.89868 139.001 10.0104C139.001 11.1489 138.731 12.1607 138.196 13.0432C137.658 13.9282 136.931 14.6279 136.014 15.1399C135.103 15.647 134.079 15.9005 132.939 15.9005H129.176V23.5947H124.135V3.95449H132.939ZM132.114 11.8437C132.703 11.8437 133.189 11.6755 133.578 11.3366C133.963 11.0002 134.157 10.5711 134.157 10.0494C134.157 9.5423 133.963 9.12785 133.578 8.80116C133.189 8.47691 132.703 8.31357 132.114 8.31357H129.176V11.8437H132.114Z" fill="#FFFFFF"/>
<path d="M56.9242 34.9831C56.622 34.9831 56.3396 34.927 56.0792 34.8173C55.8163 34.7003 55.583 34.5442 55.3816 34.3492C55.185 34.1493 55.0278 33.9177 54.9099 33.6568C54.7969 33.3984 54.7429 33.118 54.7429 32.8182C54.7429 32.5207 54.7969 32.2404 54.9099 31.9795C55.0278 31.7211 55.185 31.4919 55.3816 31.2969C55.583 31.097 55.8163 30.9409 56.0792 30.8288C56.3396 30.7118 56.622 30.6532 56.9242 30.6532C57.3295 30.6532 57.7004 30.7556 58.0345 30.9556C58.3685 31.1579 58.6289 31.4236 58.8205 31.7552L58.4275 31.9697C58.2826 31.7113 58.0762 31.5017 57.8085 31.3456C57.5456 31.1847 57.2509 31.1018 56.9242 31.1018C56.6098 31.1018 56.3199 31.1798 56.0595 31.3359C55.7967 31.487 55.5879 31.6918 55.4307 31.9502C55.2735 32.2111 55.1949 32.5012 55.1949 32.8182C55.1949 33.1375 55.2735 33.4276 55.4307 33.6861C55.5879 33.9469 55.7967 34.1542 56.0595 34.3102C56.3199 34.4613 56.6098 34.5345 56.9242 34.5345C57.2509 34.5345 57.5456 34.4565 57.8085 34.3004C58.0762 34.1395 58.2826 33.9274 58.4275 33.6666L58.8205 33.8811C58.6289 34.2127 58.3685 34.4808 58.0345 34.6808C57.7004 34.8831 57.3295 34.9831 56.9242 34.9831Z" fill="#FFFFFF"/>
<path d="M62.2682 31.1526H60.4014V32.6056H62.0324V33.0347H60.4014V34.4877H62.2682V34.9266H59.9494V30.7138H62.2682V31.1526Z" fill="#FFFFFF"/>
<path d="M65.2804 33.0054L66.5283 34.9266H66.0075L64.8088 33.0249H64.0129V34.9266H63.5609V30.7138H65.0741C65.2902 30.7138 65.4867 30.7674 65.6636 30.8698C65.8454 30.9746 65.9903 31.1185 66.0959 31.2989C66.2065 31.4744 66.263 31.6743 66.263 31.8937C66.263 32.0839 66.2163 32.2594 66.1254 32.4203C66.0394 32.5764 65.9215 32.708 65.7717 32.8104C65.6268 32.9079 65.4622 32.9737 65.2804 33.0054ZM64.0129 32.5959H65.0446C65.2657 32.5959 65.4499 32.5325 65.5948 32.4008C65.7373 32.2716 65.811 32.0985 65.811 31.884C65.811 31.6694 65.7348 31.4988 65.585 31.3671C65.4401 31.2306 65.2608 31.1623 65.0446 31.1623H64.0129V32.5959Z" fill="#FFFFFF"/>
<path d="M69.8078 30.7138V31.1623H68.6288V34.9266H68.1768V31.1623H66.9977V30.7138H69.8078Z" fill="#FFFFFF"/>
<path d="M70.7613 34.9266V30.7138H71.2133V34.9266H70.7613Z" fill="#FFFFFF"/>
<path d="M74.9771 31.1526H73.1102V32.6056H74.7413V33.0347H73.1102V34.9266H72.6582V30.7138H74.9771V31.1526Z" fill="#FFFFFF"/>
<path d="M76.0012 34.9266V30.7138H76.4532V34.9266H76.0012Z" fill="#FFFFFF"/>
<path d="M80.2151 31.1526H78.3482V32.6056H79.9793V33.0347H78.3482V34.4877H80.2151V34.9266H77.8963V30.7138H80.2151V31.1526Z" fill="#FFFFFF"/>
<path d="M81.5097 34.9266V30.7138H82.6691C82.9565 30.7138 83.2292 30.7698 83.4846 30.8795C83.745 30.9917 83.971 31.1428 84.1626 31.3379C84.3591 31.528 84.5114 31.7475 84.6244 32.001C84.7349 32.2546 84.7914 32.5276 84.7914 32.8202C84.7914 33.1127 84.7349 33.3858 84.6244 33.6393C84.5114 33.8929 84.3591 34.1172 84.1626 34.3122C83.971 34.5024 83.745 34.6511 83.4846 34.7608C83.2292 34.8729 82.9565 34.9266 82.6691 34.9266H81.5097ZM81.9518 34.478H82.6593C82.9737 34.478 83.2537 34.4073 83.5043 34.2634C83.7597 34.1147 83.9612 33.9172 84.1135 33.6686C84.2633 33.415 84.3394 33.1322 84.3394 32.8202C84.3394 32.5032 84.2633 32.2204 84.1135 31.9717C83.9612 31.7255 83.7597 31.5305 83.5043 31.3866C83.2537 31.2379 82.9737 31.1623 82.6593 31.1623H81.9518V34.478Z" fill="#FFFFFF"/>
<path d="M89.1109 34.9831C88.7965 34.9831 88.514 34.905 88.2659 34.749C88.0153 34.593 87.8385 34.3858 87.7353 34.1249L88.148 33.8811C88.2192 34.0761 88.3371 34.237 88.5017 34.3589C88.6712 34.476 88.8775 34.5345 89.1207 34.5345C89.3565 34.5345 89.5555 34.4735 89.7201 34.3492C89.8822 34.2273 89.9657 34.0542 89.9657 33.8323C89.9657 33.6568 89.9166 33.5154 89.8183 33.4033C89.7201 33.2936 89.5923 33.2034 89.4351 33.1302C89.2779 33.0522 89.1109 32.9815 88.934 32.9157C88.7621 32.845 88.595 32.7645 88.4329 32.6719C88.2757 32.5744 88.148 32.4573 88.0497 32.3208C87.9515 32.1794 87.9023 31.9941 87.9023 31.765C87.9023 31.5382 87.9539 31.3432 88.0595 31.1798C88.1701 31.0116 88.315 30.8824 88.4919 30.7898C88.6687 30.6996 88.8652 30.6532 89.0814 30.6532C89.3295 30.6532 89.553 30.7069 89.7495 30.8093C89.9461 30.9068 90.1033 31.0311 90.2212 31.1798L89.8674 31.4724C89.6906 31.2262 89.4351 31.1018 89.1011 31.1018C88.9045 31.1018 88.7301 31.1555 88.5803 31.2579C88.428 31.3627 88.3543 31.5187 88.3543 31.7259C88.3543 31.8966 88.4034 32.0331 88.5017 32.1355C88.5999 32.2404 88.7277 32.3281 88.8849 32.3988C89.047 32.472 89.214 32.5427 89.386 32.6134C89.5629 32.6792 89.7299 32.7596 89.8871 32.8572C90.0443 32.9547 90.172 33.0815 90.2703 33.2375C90.3686 33.3886 90.4177 33.5788 90.4177 33.8128C90.4177 34.0615 90.3587 34.2712 90.2408 34.4467C90.1229 34.6222 89.9657 34.7563 89.7692 34.8465C89.5727 34.9367 89.3516 34.9831 89.1109 34.9831Z" fill="#FFFFFF"/>
<path d="M93.8431 31.1526H91.9762V32.6056H93.6073V33.0347H91.9762V34.4877H93.8431V34.9266H91.5242V30.7138H93.8431V31.1526Z" fill="#FFFFFF"/>
<path d="M97.141 34.9831C96.8389 34.9831 96.5564 34.927 96.296 34.8173C96.0332 34.7003 95.7998 34.5442 95.5984 34.3492C95.4019 34.1493 95.2447 33.9177 95.1267 33.6568C95.0137 33.3984 94.9597 33.118 94.9597 32.8182C94.9597 32.5207 95.0137 32.2404 95.1267 31.9795C95.2447 31.7211 95.4019 31.4919 95.5984 31.2969C95.7998 31.097 96.0332 30.9409 96.296 30.8288C96.5564 30.7118 96.8389 30.6532 97.141 30.6532C97.5463 30.6532 97.9172 30.7556 98.2513 30.9556C98.5853 31.1579 98.8457 31.4236 99.0373 31.7552L98.6443 31.9697C98.4994 31.7113 98.293 31.5017 98.0253 31.3456C97.7625 31.1847 97.4677 31.1018 97.141 31.1018C96.8266 31.1018 96.5367 31.1798 96.2763 31.3359C96.0135 31.487 95.8047 31.6918 95.6475 31.9502C95.4903 32.2111 95.4117 32.5012 95.4117 32.8182C95.4117 33.1375 95.4903 33.4276 95.6475 33.6861C95.8047 33.9469 96.0135 34.1542 96.2763 34.3102C96.5367 34.4613 96.8266 34.5345 97.141 34.5345C97.4677 34.5345 97.7625 34.4565 98.0253 34.3004C98.293 34.1395 98.4994 33.9274 98.6443 33.6666L99.0373 33.8811C98.8457 34.2127 98.5853 34.4808 98.2513 34.6808C97.9172 34.8831 97.5463 34.9831 97.141 34.9831Z" fill="#FFFFFF"/>
<path d="M101.698 34.9851C101.395 34.9851 101.123 34.9241 100.882 34.7998C100.639 34.6779 100.45 34.5072 100.312 34.2927C100.175 34.0733 100.106 33.8222 100.106 33.5418V30.7138H100.558V33.4735C100.558 33.6759 100.607 33.8587 100.705 34.0196C100.808 34.183 100.946 34.3098 101.118 34.4C101.287 34.4926 101.481 34.5365 101.698 34.5365C101.919 34.5365 102.115 34.4926 102.287 34.4C102.464 34.3098 102.602 34.183 102.7 34.0196C102.798 33.8587 102.847 33.6759 102.847 33.4735V30.7138H103.299V33.5418C103.299 33.8222 103.23 34.0733 103.093 34.2927C102.955 34.5072 102.764 34.6779 102.523 34.7998C102.287 34.9241 102.012 34.9851 101.698 34.9851Z" fill="#FFFFFF"/>
<path d="M106.383 33.0054L107.63 34.9266H107.11L105.911 33.0249H105.115V34.9266H104.663V30.7138H106.176C106.392 30.7138 106.589 30.7674 106.766 30.8698C106.948 30.9746 107.092 31.1185 107.198 31.2989C107.309 31.4744 107.365 31.6743 107.365 31.8937C107.365 32.0839 107.318 32.2594 107.228 32.4203C107.142 32.5764 107.024 32.708 106.874 32.8104C106.729 32.9079 106.564 32.9737 106.383 33.0054ZM105.115 32.5959H106.147C106.368 32.5959 106.552 32.5325 106.697 32.4008C106.839 32.2716 106.913 32.0985 106.913 31.884C106.913 31.6694 106.837 31.4988 106.687 31.3671C106.542 31.2306 106.363 31.1623 106.147 31.1623H105.115V32.5959Z" fill="#FFFFFF"/>
<path d="M108.589 34.9266V30.7138H109.041V34.9266H108.589Z" fill="#FFFFFF"/>
<path d="M112.802 30.7138V31.1623H111.623V34.9266H111.171V31.1623H109.992V30.7138H112.802Z" fill="#FFFFFF"/>
<path d="M116.627 30.7138L115.154 32.9274V34.9266H114.702V32.9372L113.218 30.7138H113.778L114.928 32.4593L116.077 30.7138H116.627Z" fill="#FFFFFF"/>
<path d="M57.2683 38.6412H55.4014V40.0943H57.0325V40.5233H55.4014V41.9764H57.2683V42.4152H54.9494V38.2024H57.2683V38.6412Z" fill="#FFFFFF"/>
<path d="M61.6081 38.2024H62.0503V42.4152H61.6278L59.0141 38.9533V42.4152H58.5622V38.2024H58.9847L61.6081 41.6643V38.2024Z" fill="#FFFFFF"/>
<path d="M65.4481 40.1822H67.6392V40.3089C67.6392 40.6088 67.5802 40.8892 67.4623 41.1476C67.3493 41.4085 67.1921 41.6401 66.9907 41.84C66.7942 42.035 66.5633 42.191 66.3029 42.3081C66.0401 42.4178 65.7576 42.4738 65.4579 42.4738C65.1558 42.4738 64.8708 42.4178 64.6031 42.3081C64.3402 42.191 64.1118 42.035 63.9153 41.84C63.7188 41.6401 63.5616 41.4085 63.4436 41.1476C63.3307 40.8892 63.2766 40.6088 63.2766 40.3089C63.2766 40.0115 63.3307 39.7311 63.4436 39.4703C63.5616 39.2119 63.7188 38.9827 63.9153 38.7876C64.1118 38.5877 64.3402 38.4317 64.6031 38.3196C64.8708 38.2025 65.1558 38.144 65.4579 38.144C65.8632 38.144 66.2341 38.2464 66.5682 38.4463C66.9023 38.6487 67.1602 38.9144 67.3444 39.246L66.9612 39.4605C66.8163 39.2021 66.6099 38.9924 66.3422 38.8364C66.072 38.6755 65.7772 38.5926 65.4579 38.5926C65.1435 38.5926 64.8536 38.6706 64.5932 38.8267C64.3304 38.9778 64.1216 39.1826 63.9644 39.441C63.8121 39.7019 63.7384 39.992 63.7384 40.3089C63.7384 40.6283 63.8121 40.9184 63.9644 41.1768C64.1216 41.4377 64.3304 41.6449 64.5932 41.801C64.8536 41.9521 65.1435 42.0253 65.4579 42.0253C65.7453 42.0253 66.0106 41.9643 66.2538 41.84C66.4945 41.7181 66.6959 41.5474 66.8531 41.3329C67.0152 41.1183 67.1184 40.8745 67.1577 40.6015H65.4481V40.1822Z" fill="#FFFFFF"/>
<path d="M68.8961 42.4152V38.2024H69.348V42.4152H68.8961Z" fill="#FFFFFF"/>
<path d="M73.8061 38.2021H74.2482V42.4149H73.8257L71.2121 38.953V42.4149H70.7601V38.2021H71.1826L73.8061 41.664V38.2021Z" fill="#FFFFFF"/>
<path d="M77.9819 38.6409H76.115V40.0939H77.746V40.523H76.115V41.976H77.9819V42.4149H75.663V38.2021H77.9819V38.6409Z" fill="#FFFFFF"/>
<path d="M81.6243 38.6412H79.7575V40.0943H81.3885V40.5233H79.7575V41.9764H81.6243V42.4152H79.3055V38.2024H81.6243V38.6412Z" fill="#FFFFFF"/>
<path d="M84.6377 40.4941L85.8856 42.4152H85.3648L84.1661 40.5136H83.3702V42.4152H82.9183V38.2024H84.4314C84.6476 38.2024 84.8441 38.256 85.0209 38.3584C85.2027 38.4633 85.3476 38.6071 85.4533 38.7875C85.5638 38.9631 85.6203 39.163 85.6203 39.3824C85.6203 39.5725 85.5736 39.7481 85.4827 39.909C85.3968 40.065 85.2788 40.1967 85.129 40.2991C84.9841 40.3966 84.8195 40.4624 84.6377 40.4941ZM83.3702 40.0845H84.4019C84.623 40.0845 84.8072 40.0211 84.9521 39.8895C85.0946 39.7603 85.1683 39.5872 85.1683 39.3726C85.1683 39.1581 85.0922 38.9874 84.9423 38.8558C84.7974 38.7193 84.6181 38.651 84.4019 38.651H83.3702V40.0845Z" fill="#FFFFFF"/>
<path d="M90.3789 38.2021C90.5999 38.2021 90.8014 38.2557 90.9782 38.3581C91.1551 38.4629 91.2951 38.6068 91.4007 38.7872C91.5113 38.9627 91.5677 39.1577 91.5677 39.3723C91.5677 39.5868 91.5113 39.7867 91.4007 39.9671C91.2951 40.1427 91.1551 40.2841 90.9782 40.3865C90.8014 40.4913 90.5999 40.5425 90.3789 40.5425H89.3177V42.4149H88.8657V38.2021H90.3789ZM90.3396 40.1134C90.5483 40.1134 90.7277 40.05 90.88 39.9184C91.0372 39.7892 91.1158 39.6112 91.1158 39.382C91.1158 39.1553 91.0372 38.9773 90.88 38.8457C90.7277 38.7092 90.5483 38.6409 90.3396 38.6409H89.3177V40.1134H90.3396Z" fill="#FFFFFF"/>
<path d="M94.2688 40.4941L95.5166 42.4152H94.9959L93.7972 40.5136H93.0013V42.4152H92.5493V38.2024H94.0624C94.2786 38.2024 94.4751 38.256 94.652 38.3584C94.8338 38.4633 94.9787 38.6071 95.0843 38.7875C95.1948 38.9631 95.2513 39.163 95.2513 39.3824C95.2513 39.5725 95.2047 39.7481 95.1138 39.909C95.0278 40.065 94.9099 40.1967 94.7601 40.2991C94.6151 40.3966 94.4506 40.4624 94.2688 40.4941ZM93.0013 40.0845H94.033C94.254 40.0845 94.4383 40.0211 94.5832 39.8895C94.7257 39.7603 94.7994 39.5872 94.7994 39.3726C94.7994 39.1581 94.7232 38.9874 94.5734 38.8558C94.4285 38.7193 94.2491 38.651 94.033 38.651H93.0013V40.0845Z" fill="#FFFFFF"/>
<path d="M98.4491 42.4738C98.147 42.4738 97.8645 42.4178 97.6041 42.3081C97.3413 42.191 97.1079 42.035 96.9065 41.84C96.71 41.6401 96.5528 41.4085 96.4348 41.1476C96.3219 40.8892 96.2678 40.6088 96.2678 40.3089C96.2678 40.0115 96.3219 39.7311 96.4348 39.4703C96.5528 39.2119 96.71 38.9827 96.9065 38.7876C97.1079 38.5877 97.3413 38.4317 97.6041 38.3196C97.8645 38.2025 98.147 38.144 98.4491 38.144C98.7488 38.144 99.0313 38.2025 99.2941 38.3196C99.5618 38.4317 99.7952 38.5877 99.9917 38.7876C100.188 38.9827 100.341 39.2119 100.454 39.4703C100.571 39.7311 100.63 40.0115 100.63 40.3089C100.63 40.6088 100.571 40.8892 100.454 41.1476C100.341 41.4085 100.188 41.6401 99.9917 41.84C99.7952 42.035 99.5618 42.191 99.2941 42.3081C99.0313 42.4178 98.7488 42.4738 98.4491 42.4738ZM98.4491 42.0253C98.7684 42.0253 99.0607 41.9521 99.3236 41.801C99.5839 41.6449 99.7903 41.4377 99.9426 41.1768C100.1 40.9184 100.178 40.6283 100.178 40.3089C100.178 39.992 100.1 39.7019 99.9426 39.441C99.7903 39.1826 99.5839 38.9778 99.3236 38.8267C99.0607 38.6706 98.7684 38.5926 98.4491 38.5926C98.1347 38.5926 97.8448 38.6706 97.5844 38.8267C97.3216 38.9778 97.1128 39.1826 96.9556 39.441C96.7984 39.7019 96.7198 39.992 96.7198 40.3089C96.7198 40.6283 96.7984 40.9184 96.9556 41.1768C97.1128 41.4377 97.3216 41.6449 97.5844 41.801C97.8448 41.9521 98.1347 42.0253 98.4491 42.0253Z" fill="#FFFFFF"/>
<path d="M104.199 38.6409H102.332V40.0939H103.963V40.523H102.332V42.4149H101.88V38.2021H104.199V38.6409Z" fill="#FFFFFF"/>
<path d="M107.544 38.6409H105.677V40.0939H107.308V40.523H105.677V41.976H107.544V42.4149H105.225V38.2021H107.544V38.6409Z" fill="#FFFFFF"/>
<path d="M109.897 42.4737C109.583 42.4737 109.3 42.3957 109.052 42.2397C108.802 42.0836 108.625 41.8764 108.522 41.6156L108.934 41.3718C109.005 41.5668 109.123 41.7277 109.288 41.8496C109.457 41.9666 109.664 42.0251 109.907 42.0251C110.143 42.0251 110.342 41.9642 110.506 41.8398C110.668 41.7179 110.752 41.5449 110.752 41.323C110.752 41.1475 110.703 41.0061 110.605 40.8939C110.506 40.7842 110.379 40.694 110.221 40.6209C110.064 40.5429 109.897 40.4721 109.72 40.4063C109.548 40.3356 109.381 40.2552 109.219 40.1625C109.062 40.065 108.934 39.948 108.836 39.8115C108.738 39.6701 108.689 39.4848 108.689 39.2556C108.689 39.0289 108.74 38.8338 108.846 38.6705C108.956 38.5023 109.101 38.3731 109.278 38.2804C109.455 38.1902 109.652 38.1439 109.868 38.1439C110.116 38.1439 110.339 38.1975 110.536 38.2999C110.732 38.3974 110.89 38.5218 111.007 38.6705L110.654 38.9631C110.477 38.7168 110.221 38.5925 109.887 38.5925C109.691 38.5925 109.516 38.6461 109.367 38.7485C109.214 38.8533 109.141 39.0094 109.141 39.2166C109.141 39.3873 109.19 39.5238 109.288 39.6262C109.386 39.731 109.514 39.8188 109.671 39.8895C109.833 39.9626 110 40.0333 110.172 40.104C110.349 40.1698 110.516 40.2503 110.673 40.3478C110.831 40.4453 110.958 40.5721 111.057 40.7281C111.155 40.8793 111.204 41.0694 111.204 41.3035C111.204 41.5522 111.145 41.7618 111.027 41.9374C110.909 42.1129 110.752 42.247 110.555 42.3372C110.359 42.4274 110.138 42.4737 109.897 42.4737Z" fill="#FFFFFF"/>
<path d="M113.341 42.4737C113.027 42.4737 112.744 42.3957 112.496 42.2397C112.246 42.0836 112.069 41.8764 111.966 41.6156L112.378 41.3718C112.45 41.5668 112.568 41.7277 112.732 41.8496C112.902 41.9666 113.108 42.0251 113.351 42.0251C113.587 42.0251 113.786 41.9642 113.95 41.8398C114.113 41.7179 114.196 41.5449 114.196 41.323C114.196 41.1475 114.147 41.0061 114.049 40.8939C113.95 40.7842 113.823 40.694 113.666 40.6209C113.508 40.5429 113.341 40.4721 113.164 40.4063C112.992 40.3356 112.825 40.2552 112.663 40.1625C112.506 40.065 112.378 39.948 112.28 39.8115C112.182 39.6701 112.133 39.4848 112.133 39.2556C112.133 39.0289 112.184 38.8338 112.29 38.6705C112.401 38.5023 112.545 38.3731 112.722 38.2804C112.899 38.1902 113.096 38.1439 113.312 38.1439C113.56 38.1439 113.783 38.1975 113.98 38.2999C114.176 38.3974 114.334 38.5218 114.452 38.6705L114.098 38.9631C113.921 38.7168 113.666 38.5925 113.331 38.5925C113.135 38.5925 112.961 38.6461 112.811 38.7485C112.658 38.8533 112.585 39.0094 112.585 39.2166C112.585 39.3873 112.634 39.5238 112.732 39.6262C112.83 39.731 112.958 39.8188 113.115 39.8895C113.277 39.9626 113.444 40.0333 113.616 40.104C113.793 40.1698 113.96 40.2503 114.118 40.3478C114.275 40.4453 114.402 40.5721 114.501 40.7281C114.599 40.8793 114.648 41.0694 114.648 41.3035C114.648 41.5522 114.589 41.7618 114.471 41.9374C114.353 42.1129 114.196 42.247 114 42.3372C113.803 42.4274 113.582 42.4737 113.341 42.4737Z" fill="#FFFFFF"/>
<path d="M115.755 42.4149V38.2021H116.207V42.4149H115.755Z" fill="#FFFFFF"/>
<path d="M119.623 42.4737C119.321 42.4737 119.038 42.4176 118.778 42.3079C118.515 42.1909 118.282 42.0349 118.08 41.8398C117.884 41.6399 117.726 41.4083 117.609 41.1475C117.496 40.889 117.441 40.6087 117.441 40.3088C117.441 40.0114 117.496 39.731 117.609 39.4701C117.726 39.2117 117.884 38.9826 118.08 38.7875C118.282 38.5876 118.515 38.4316 118.778 38.3194C119.038 38.2024 119.321 38.1439 119.623 38.1439C119.922 38.1439 120.205 38.2024 120.468 38.3194C120.736 38.4316 120.969 38.5876 121.165 38.7875C121.362 38.9826 121.514 39.2117 121.627 39.4701C121.745 39.731 121.804 40.0114 121.804 40.3088C121.804 40.6087 121.745 40.889 121.627 41.1475C121.514 41.4083 121.362 41.6399 121.165 41.8398C120.969 42.0349 120.736 42.1909 120.468 42.3079C120.205 42.4176 119.922 42.4737 119.623 42.4737ZM119.623 42.0251C119.942 42.0251 120.234 41.952 120.497 41.8008C120.758 41.6448 120.964 41.4376 121.116 41.1767C121.273 40.9183 121.352 40.6282 121.352 40.3088C121.352 39.9919 121.273 39.7018 121.116 39.4409C120.964 39.1825 120.758 38.9777 120.497 38.8265C120.234 38.6705 119.942 38.5925 119.623 38.5925C119.308 38.5925 119.018 38.6705 118.758 38.8265C118.495 38.9777 118.286 39.1825 118.129 39.4409C117.972 39.7018 117.893 39.9919 117.893 40.3088C117.893 40.6282 117.972 40.9183 118.129 41.1767C118.286 41.4376 118.495 41.6448 118.758 41.8008C119.018 41.952 119.308 42.0251 119.623 42.0251Z" fill="#FFFFFF"/>
<path d="M126.069 38.2021H126.511V42.4149H126.089L123.475 38.953V42.4149H123.023V38.2021H123.445L126.069 41.664V38.2021Z" fill="#FFFFFF"/>
<path d="M130.45 42.4152L130.106 41.4303H128.219L127.866 42.4152H127.374L128.907 38.2024H129.408L130.951 42.4152H130.45ZM128.367 41.0012H129.958L129.162 38.7388L128.367 41.0012Z" fill="#FFFFFF"/>
<path d="M132.266 41.9663H133.838V42.4149H131.814V38.2021H132.266V41.9663Z" fill="#FFFFFF"/>
</svg>
